<?xml version="1.0" encoding="utf-8" standalone="no"?>
<!DOCTYPE svg PUBLIC "-//W3C//DTD SVG 1.1//EN"
  "http://www.w3.org/Graphics/SVG/1.1/DTD/svg11.dtd">
<svg height="288pt" version="1.1" viewBox="0 0 432 288" width="432pt" xmlns="http://www.w3.org/2000/svg" xmlns:xlink="http://www.w3.org/1999/xlink">
 <metadata>
  <rdf:RDF xmlns:cc="http://creativecommons.org/ns#" xmlns:dc="http://purl.org/dc/elements/1.1/" xmlns:rdf="http://www.w3.org/1999/02/22-rdf-syntax-ns#">
   <cc:Work>
    <dc:type rdf:resource="http://purl.org/dc/dcmitype/StillImage"/>
    <dc:date>2021-12-14T19:11:49.488154</dc:date>
    <dc:format>image/svg+xml</dc:format>
    <dc:creator>
     <cc:Agent>
      <dc:title>Matplotlib v3.4.3, https://matplotlib.org/</dc:title>
     </cc:Agent>
    </dc:creator>
   </cc:Work>
  </rdf:RDF>
 </metadata>
 <defs>
  <style type="text/css">*{stroke-linecap:butt;stroke-linejoin:round;}</style>
 </defs>
 <g id="figure_1">
  <g id="patch_1">
   <path d="M 0 288 
L 432 288 
L 432 0 
L 0 0 
z
" style="fill:none;"/>
  </g>
  <g id="axes_1">
   <g id="patch_2">
    <path d="M 54 252 
L 388.8 252 
L 388.8 34.56 
L 54 34.56 
z
" style="fill:#ffffff;"/>
   </g>
   <g id="matplotlib.axis_1">
    <g id="xtick_1">
     <g id="line2d_1">
      <defs>
       <path d="M 0 0 
L 0 3.5 
" id="m8c0a315edc" style="stroke:#000000;stroke-width:0.8;"/>
      </defs>
      <g>
       <use style="stroke:#000000;stroke-width:0.8;" x="54" xlink:href="#m8c0a315edc" y="252"/>
      </g>
     </g>
     <g id="text_1">
      <!-- 0 -->
      <g transform="translate(50.81875 266.598437)scale(0.1 -0.1)">
       <defs>
        <path d="M 2034 4250 
Q 1547 4250 1301 3770 
Q 1056 3291 1056 2328 
Q 1056 1369 1301 889 
Q 1547 409 2034 409 
Q 2525 409 2770 889 
Q 3016 1369 3016 2328 
Q 3016 3291 2770 3770 
Q 2525 4250 2034 4250 
z
M 2034 4750 
Q 2819 4750 3233 4129 
Q 3647 3509 3647 2328 
Q 3647 1150 3233 529 
Q 2819 -91 2034 -91 
Q 1250 -91 836 529 
Q 422 1150 422 2328 
Q 422 3509 836 4129 
Q 1250 4750 2034 4750 
z
" id="DejaVuSans-30" transform="scale(0.015625)"/>
       </defs>
       <use xlink:href="#DejaVuSans-30"/>
      </g>
     </g>
    </g>
    <g id="xtick_2">
     <g id="line2d_2">
      <g>
       <use style="stroke:#000000;stroke-width:0.8;" x="111.724138" xlink:href="#m8c0a315edc" y="252"/>
      </g>
     </g>
     <g id="text_2">
      <!-- 10 -->
      <g transform="translate(105.361638 266.598437)scale(0.1 -0.1)">
       <defs>
        <path d="M 794 531 
L 1825 531 
L 1825 4091 
L 703 3866 
L 703 4441 
L 1819 4666 
L 2450 4666 
L 2450 531 
L 3481 531 
L 3481 0 
L 794 0 
L 794 531 
z
" id="DejaVuSans-31" transform="scale(0.015625)"/>
       </defs>
       <use xlink:href="#DejaVuSans-31"/>
       <use x="63.623047" xlink:href="#DejaVuSans-30"/>
      </g>
     </g>
    </g>
    <g id="xtick_3">
     <g id="line2d_3">
      <g>
       <use style="stroke:#000000;stroke-width:0.8;" x="169.448276" xlink:href="#m8c0a315edc" y="252"/>
      </g>
     </g>
     <g id="text_3">
      <!-- 20 -->
      <g transform="translate(163.085776 266.598437)scale(0.1 -0.1)">
       <defs>
        <path d="M 1228 531 
L 3431 531 
L 3431 0 
L 469 0 
L 469 531 
Q 828 903 1448 1529 
Q 2069 2156 2228 2338 
Q 2531 2678 2651 2914 
Q 2772 3150 2772 3378 
Q 2772 3750 2511 3984 
Q 2250 4219 1831 4219 
Q 1534 4219 1204 4116 
Q 875 4013 500 3803 
L 500 4441 
Q 881 4594 1212 4672 
Q 1544 4750 1819 4750 
Q 2544 4750 2975 4387 
Q 3406 4025 3406 3419 
Q 3406 3131 3298 2873 
Q 3191 2616 2906 2266 
Q 2828 2175 2409 1742 
Q 1991 1309 1228 531 
z
" id="DejaVuSans-32" transform="scale(0.015625)"/>
       </defs>
       <use xlink:href="#DejaVuSans-32"/>
       <use x="63.623047" xlink:href="#DejaVuSans-30"/>
      </g>
     </g>
    </g>
    <g id="xtick_4">
     <g id="line2d_4">
      <g>
       <use style="stroke:#000000;stroke-width:0.8;" x="227.172414" xlink:href="#m8c0a315edc" y="252"/>
      </g>
     </g>
     <g id="text_4">
      <!-- 30 -->
      <g transform="translate(220.809914 266.598437)scale(0.1 -0.1)">
       <defs>
        <path d="M 2597 2516 
Q 3050 2419 3304 2112 
Q 3559 1806 3559 1356 
Q 3559 666 3084 287 
Q 2609 -91 1734 -91 
Q 1441 -91 1130 -33 
Q 819 25 488 141 
L 488 750 
Q 750 597 1062 519 
Q 1375 441 1716 441 
Q 2309 441 2620 675 
Q 2931 909 2931 1356 
Q 2931 1769 2642 2001 
Q 2353 2234 1838 2234 
L 1294 2234 
L 1294 2753 
L 1863 2753 
Q 2328 2753 2575 2939 
Q 2822 3125 2822 3475 
Q 2822 3834 2567 4026 
Q 2313 4219 1838 4219 
Q 1578 4219 1281 4162 
Q 984 4106 628 3988 
L 628 4550 
Q 988 4650 1302 4700 
Q 1616 4750 1894 4750 
Q 2613 4750 3031 4423 
Q 3450 4097 3450 3541 
Q 3450 3153 3228 2886 
Q 3006 2619 2597 2516 
z
" id="DejaVuSans-33" transform="scale(0.015625)"/>
       </defs>
       <use xlink:href="#DejaVuSans-33"/>
       <use x="63.623047" xlink:href="#DejaVuSans-30"/>
      </g>
     </g>
    </g>
    <g id="xtick_5">
     <g id="line2d_5">
      <g>
       <use style="stroke:#000000;stroke-width:0.8;" x="284.896552" xlink:href="#m8c0a315edc" y="252"/>
      </g>
     </g>
     <g id="text_5">
      <!-- 40 -->
      <g transform="translate(278.534052 266.598437)scale(0.1 -0.1)">
       <defs>
        <path d="M 2419 4116 
L 825 1625 
L 2419 1625 
L 2419 4116 
z
M 2253 4666 
L 3047 4666 
L 3047 1625 
L 3713 1625 
L 3713 1100 
L 3047 1100 
L 3047 0 
L 2419 0 
L 2419 1100 
L 313 1100 
L 313 1709 
L 2253 4666 
z
" id="DejaVuSans-34" transform="scale(0.015625)"/>
       </defs>
       <use xlink:href="#DejaVuSans-34"/>
       <use x="63.623047" xlink:href="#DejaVuSans-30"/>
      </g>
     </g>
    </g>
    <g id="xtick_6">
     <g id="line2d_6">
      <g>
       <use style="stroke:#000000;stroke-width:0.8;" x="342.62069" xlink:href="#m8c0a315edc" y="252"/>
      </g>
     </g>
     <g id="text_6">
      <!-- 50 -->
      <g transform="translate(336.25819 266.598437)scale(0.1 -0.1)">
       <defs>
        <path d="M 691 4666 
L 3169 4666 
L 3169 4134 
L 1269 4134 
L 1269 2991 
Q 1406 3038 1543 3061 
Q 1681 3084 1819 3084 
Q 2600 3084 3056 2656 
Q 3513 2228 3513 1497 
Q 3513 744 3044 326 
Q 2575 -91 1722 -91 
Q 1428 -91 1123 -41 
Q 819 9 494 109 
L 494 744 
Q 775 591 1075 516 
Q 1375 441 1709 441 
Q 2250 441 2565 725 
Q 2881 1009 2881 1497 
Q 2881 1984 2565 2268 
Q 2250 2553 1709 2553 
Q 1456 2553 1204 2497 
Q 953 2441 691 2322 
L 691 4666 
z
" id="DejaVuSans-35" transform="scale(0.015625)"/>
       </defs>
       <use xlink:href="#DejaVuSans-35"/>
       <use x="63.623047" xlink:href="#DejaVuSans-30"/>
      </g>
     </g>
    </g>
    <g id="text_7">
     <!-- numer ruchu -->
     <g transform="translate(189.160156 280.276563)scale(0.1 -0.1)">
      <defs>
       <path d="M 3513 2113 
L 3513 0 
L 2938 0 
L 2938 2094 
Q 2938 2591 2744 2837 
Q 2550 3084 2163 3084 
Q 1697 3084 1428 2787 
Q 1159 2491 1159 1978 
L 1159 0 
L 581 0 
L 581 3500 
L 1159 3500 
L 1159 2956 
Q 1366 3272 1645 3428 
Q 1925 3584 2291 3584 
Q 2894 3584 3203 3211 
Q 3513 2838 3513 2113 
z
" id="DejaVuSans-6e" transform="scale(0.015625)"/>
       <path d="M 544 1381 
L 544 3500 
L 1119 3500 
L 1119 1403 
Q 1119 906 1312 657 
Q 1506 409 1894 409 
Q 2359 409 2629 706 
Q 2900 1003 2900 1516 
L 2900 3500 
L 3475 3500 
L 3475 0 
L 2900 0 
L 2900 538 
Q 2691 219 2414 64 
Q 2138 -91 1772 -91 
Q 1169 -91 856 284 
Q 544 659 544 1381 
z
M 1991 3584 
L 1991 3584 
z
" id="DejaVuSans-75" transform="scale(0.015625)"/>
       <path d="M 3328 2828 
Q 3544 3216 3844 3400 
Q 4144 3584 4550 3584 
Q 5097 3584 5394 3201 
Q 5691 2819 5691 2113 
L 5691 0 
L 5113 0 
L 5113 2094 
Q 5113 2597 4934 2840 
Q 4756 3084 4391 3084 
Q 3944 3084 3684 2787 
Q 3425 2491 3425 1978 
L 3425 0 
L 2847 0 
L 2847 2094 
Q 2847 2600 2669 2842 
Q 2491 3084 2119 3084 
Q 1678 3084 1418 2786 
Q 1159 2488 1159 1978 
L 1159 0 
L 581 0 
L 581 3500 
L 1159 3500 
L 1159 2956 
Q 1356 3278 1631 3431 
Q 1906 3584 2284 3584 
Q 2666 3584 2933 3390 
Q 3200 3197 3328 2828 
z
" id="DejaVuSans-6d" transform="scale(0.015625)"/>
       <path d="M 3597 1894 
L 3597 1613 
L 953 1613 
Q 991 1019 1311 708 
Q 1631 397 2203 397 
Q 2534 397 2845 478 
Q 3156 559 3463 722 
L 3463 178 
Q 3153 47 2828 -22 
Q 2503 -91 2169 -91 
Q 1331 -91 842 396 
Q 353 884 353 1716 
Q 353 2575 817 3079 
Q 1281 3584 2069 3584 
Q 2775 3584 3186 3129 
Q 3597 2675 3597 1894 
z
M 3022 2063 
Q 3016 2534 2758 2815 
Q 2500 3097 2075 3097 
Q 1594 3097 1305 2825 
Q 1016 2553 972 2059 
L 3022 2063 
z
" id="DejaVuSans-65" transform="scale(0.015625)"/>
       <path d="M 2631 2963 
Q 2534 3019 2420 3045 
Q 2306 3072 2169 3072 
Q 1681 3072 1420 2755 
Q 1159 2438 1159 1844 
L 1159 0 
L 581 0 
L 581 3500 
L 1159 3500 
L 1159 2956 
Q 1341 3275 1631 3429 
Q 1922 3584 2338 3584 
Q 2397 3584 2469 3576 
Q 2541 3569 2628 3553 
L 2631 2963 
z
" id="DejaVuSans-72" transform="scale(0.015625)"/>
       <path id="DejaVuSans-20" transform="scale(0.015625)"/>
       <path d="M 3122 3366 
L 3122 2828 
Q 2878 2963 2633 3030 
Q 2388 3097 2138 3097 
Q 1578 3097 1268 2742 
Q 959 2388 959 1747 
Q 959 1106 1268 751 
Q 1578 397 2138 397 
Q 2388 397 2633 464 
Q 2878 531 3122 666 
L 3122 134 
Q 2881 22 2623 -34 
Q 2366 -91 2075 -91 
Q 1284 -91 818 406 
Q 353 903 353 1747 
Q 353 2603 823 3093 
Q 1294 3584 2113 3584 
Q 2378 3584 2631 3529 
Q 2884 3475 3122 3366 
z
" id="DejaVuSans-63" transform="scale(0.015625)"/>
       <path d="M 3513 2113 
L 3513 0 
L 2938 0 
L 2938 2094 
Q 2938 2591 2744 2837 
Q 2550 3084 2163 3084 
Q 1697 3084 1428 2787 
Q 1159 2491 1159 1978 
L 1159 0 
L 581 0 
L 581 4863 
L 1159 4863 
L 1159 2956 
Q 1366 3272 1645 3428 
Q 1925 3584 2291 3584 
Q 2894 3584 3203 3211 
Q 3513 2838 3513 2113 
z
" id="DejaVuSans-68" transform="scale(0.015625)"/>
      </defs>
      <use xlink:href="#DejaVuSans-6e"/>
      <use x="63.378906" xlink:href="#DejaVuSans-75"/>
      <use x="126.757812" xlink:href="#DejaVuSans-6d"/>
      <use x="224.169922" xlink:href="#DejaVuSans-65"/>
      <use x="285.693359" xlink:href="#DejaVuSans-72"/>
      <use x="326.806641" xlink:href="#DejaVuSans-20"/>
      <use x="358.59375" xlink:href="#DejaVuSans-72"/>
      <use x="399.707031" xlink:href="#DejaVuSans-75"/>
      <use x="463.085938" xlink:href="#DejaVuSans-63"/>
      <use x="518.066406" xlink:href="#DejaVuSans-68"/>
      <use x="581.445312" xlink:href="#DejaVuSans-75"/>
     </g>
    </g>
   </g>
   <g id="matplotlib.axis_2">
    <g id="ytick_1">
     <g id="line2d_7">
      <defs>
       <path d="M 0 0 
L -3.5 0 
" id="m557b092b7a" style="stroke:#000000;stroke-width:0.8;"/>
      </defs>
      <g>
       <use style="stroke:#000000;stroke-width:0.8;" x="54" xlink:href="#m557b092b7a" y="252"/>
      </g>
     </g>
     <g id="text_8">
      <!-- 0.00 -->
      <g transform="translate(24.734375 255.799219)scale(0.1 -0.1)">
       <defs>
        <path d="M 684 794 
L 1344 794 
L 1344 0 
L 684 0 
L 684 794 
z
" id="DejaVuSans-2e" transform="scale(0.015625)"/>
       </defs>
       <use xlink:href="#DejaVuSans-30"/>
       <use x="63.623047" xlink:href="#DejaVuSans-2e"/>
       <use x="95.410156" xlink:href="#DejaVuSans-30"/>
       <use x="159.033203" xlink:href="#DejaVuSans-30"/>
      </g>
     </g>
    </g>
    <g id="ytick_2">
     <g id="line2d_8">
      <g>
       <use style="stroke:#000000;stroke-width:0.8;" x="54" xlink:href="#m557b092b7a" y="223.008"/>
      </g>
     </g>
     <g id="text_9">
      <!-- 0.02 -->
      <g transform="translate(24.734375 226.807219)scale(0.1 -0.1)">
       <use xlink:href="#DejaVuSans-30"/>
       <use x="63.623047" xlink:href="#DejaVuSans-2e"/>
       <use x="95.410156" xlink:href="#DejaVuSans-30"/>
       <use x="159.033203" xlink:href="#DejaVuSans-32"/>
      </g>
     </g>
    </g>
    <g id="ytick_3">
     <g id="line2d_9">
      <g>
       <use style="stroke:#000000;stroke-width:0.8;" x="54" xlink:href="#m557b092b7a" y="194.016"/>
      </g>
     </g>
     <g id="text_10">
      <!-- 0.04 -->
      <g transform="translate(24.734375 197.815219)scale(0.1 -0.1)">
       <use xlink:href="#DejaVuSans-30"/>
       <use x="63.623047" xlink:href="#DejaVuSans-2e"/>
       <use x="95.410156" xlink:href="#DejaVuSans-30"/>
       <use x="159.033203" xlink:href="#DejaVuSans-34"/>
      </g>
     </g>
    </g>
    <g id="ytick_4">
     <g id="line2d_10">
      <g>
       <use style="stroke:#000000;stroke-width:0.8;" x="54" xlink:href="#m557b092b7a" y="165.024"/>
      </g>
     </g>
     <g id="text_11">
      <!-- 0.06 -->
      <g transform="translate(24.734375 168.823219)scale(0.1 -0.1)">
       <defs>
        <path d="M 2113 2584 
Q 1688 2584 1439 2293 
Q 1191 2003 1191 1497 
Q 1191 994 1439 701 
Q 1688 409 2113 409 
Q 2538 409 2786 701 
Q 3034 994 3034 1497 
Q 3034 2003 2786 2293 
Q 2538 2584 2113 2584 
z
M 3366 4563 
L 3366 3988 
Q 3128 4100 2886 4159 
Q 2644 4219 2406 4219 
Q 1781 4219 1451 3797 
Q 1122 3375 1075 2522 
Q 1259 2794 1537 2939 
Q 1816 3084 2150 3084 
Q 2853 3084 3261 2657 
Q 3669 2231 3669 1497 
Q 3669 778 3244 343 
Q 2819 -91 2113 -91 
Q 1303 -91 875 529 
Q 447 1150 447 2328 
Q 447 3434 972 4092 
Q 1497 4750 2381 4750 
Q 2619 4750 2861 4703 
Q 3103 4656 3366 4563 
z
" id="DejaVuSans-36" transform="scale(0.015625)"/>
       </defs>
       <use xlink:href="#DejaVuSans-30"/>
       <use x="63.623047" xlink:href="#DejaVuSans-2e"/>
       <use x="95.410156" xlink:href="#DejaVuSans-30"/>
       <use x="159.033203" xlink:href="#DejaVuSans-36"/>
      </g>
     </g>
    </g>
    <g id="ytick_5">
     <g id="line2d_11">
      <g>
       <use style="stroke:#000000;stroke-width:0.8;" x="54" xlink:href="#m557b092b7a" y="136.032"/>
      </g>
     </g>
     <g id="text_12">
      <!-- 0.08 -->
      <g transform="translate(24.734375 139.831219)scale(0.1 -0.1)">
       <defs>
        <path d="M 2034 2216 
Q 1584 2216 1326 1975 
Q 1069 1734 1069 1313 
Q 1069 891 1326 650 
Q 1584 409 2034 409 
Q 2484 409 2743 651 
Q 3003 894 3003 1313 
Q 3003 1734 2745 1975 
Q 2488 2216 2034 2216 
z
M 1403 2484 
Q 997 2584 770 2862 
Q 544 3141 544 3541 
Q 544 4100 942 4425 
Q 1341 4750 2034 4750 
Q 2731 4750 3128 4425 
Q 3525 4100 3525 3541 
Q 3525 3141 3298 2862 
Q 3072 2584 2669 2484 
Q 3125 2378 3379 2068 
Q 3634 1759 3634 1313 
Q 3634 634 3220 271 
Q 2806 -91 2034 -91 
Q 1263 -91 848 271 
Q 434 634 434 1313 
Q 434 1759 690 2068 
Q 947 2378 1403 2484 
z
M 1172 3481 
Q 1172 3119 1398 2916 
Q 1625 2713 2034 2713 
Q 2441 2713 2670 2916 
Q 2900 3119 2900 3481 
Q 2900 3844 2670 4047 
Q 2441 4250 2034 4250 
Q 1625 4250 1398 4047 
Q 1172 3844 1172 3481 
z
" id="DejaVuSans-38" transform="scale(0.015625)"/>
       </defs>
       <use xlink:href="#DejaVuSans-30"/>
       <use x="63.623047" xlink:href="#DejaVuSans-2e"/>
       <use x="95.410156" xlink:href="#DejaVuSans-30"/>
       <use x="159.033203" xlink:href="#DejaVuSans-38"/>
      </g>
     </g>
    </g>
    <g id="ytick_6">
     <g id="line2d_12">
      <g>
       <use style="stroke:#000000;stroke-width:0.8;" x="54" xlink:href="#m557b092b7a" y="107.04"/>
      </g>
     </g>
     <g id="text_13">
      <!-- 0.10 -->
      <g transform="translate(24.734375 110.839219)scale(0.1 -0.1)">
       <use xlink:href="#DejaVuSans-30"/>
       <use x="63.623047" xlink:href="#DejaVuSans-2e"/>
       <use x="95.410156" xlink:href="#DejaVuSans-31"/>
       <use x="159.033203" xlink:href="#DejaVuSans-30"/>
      </g>
     </g>
    </g>
    <g id="ytick_7">
     <g id="line2d_13">
      <g>
       <use style="stroke:#000000;stroke-width:0.8;" x="54" xlink:href="#m557b092b7a" y="78.048"/>
      </g>
     </g>
     <g id="text_14">
      <!-- 0.12 -->
      <g transform="translate(24.734375 81.847219)scale(0.1 -0.1)">
       <use xlink:href="#DejaVuSans-30"/>
       <use x="63.623047" xlink:href="#DejaVuSans-2e"/>
       <use x="95.410156" xlink:href="#DejaVuSans-31"/>
       <use x="159.033203" xlink:href="#DejaVuSans-32"/>
      </g>
     </g>
    </g>
    <g id="ytick_8">
     <g id="line2d_14">
      <g>
       <use style="stroke:#000000;stroke-width:0.8;" x="54" xlink:href="#m557b092b7a" y="49.056"/>
      </g>
     </g>
     <g id="text_15">
      <!-- 0.14 -->
      <g transform="translate(24.734375 52.855219)scale(0.1 -0.1)">
       <use xlink:href="#DejaVuSans-30"/>
       <use x="63.623047" xlink:href="#DejaVuSans-2e"/>
       <use x="95.410156" xlink:href="#DejaVuSans-31"/>
       <use x="159.033203" xlink:href="#DejaVuSans-34"/>
      </g>
     </g>
    </g>
    <g id="text_16">
     <!-- p -->
     <g transform="translate(18.654688 146.454219)rotate(-90)scale(0.1 -0.1)">
      <defs>
       <path d="M 1159 525 
L 1159 -1331 
L 581 -1331 
L 581 3500 
L 1159 3500 
L 1159 2969 
Q 1341 3281 1617 3432 
Q 1894 3584 2278 3584 
Q 2916 3584 3314 3078 
Q 3713 2572 3713 1747 
Q 3713 922 3314 415 
Q 2916 -91 2278 -91 
Q 1894 -91 1617 61 
Q 1341 213 1159 525 
z
M 3116 1747 
Q 3116 2381 2855 2742 
Q 2594 3103 2138 3103 
Q 1681 3103 1420 2742 
Q 1159 2381 1159 1747 
Q 1159 1113 1420 752 
Q 1681 391 2138 391 
Q 2594 391 2855 752 
Q 3116 1113 3116 1747 
z
" id="DejaVuSans-70" transform="scale(0.015625)"/>
      </defs>
      <use xlink:href="#DejaVuSans-70"/>
     </g>
    </g>
   </g>
   <g id="line2d_15">
    <path clip-path="url(#pe862f217be)" d="M 65.544828 248.325697 
L 71.317241 238.918468 
L 77.089655 213.414077 
L 82.862069 186.873362 
L 88.634483 158.300624 
L 94.406897 134.51085 
L 100.17931 110.555017 
L 105.951724 99.05737 
L 111.724138 90.192152 
L 117.496552 77.237944 
L 123.268966 74.440351 
L 129.041379 68.712977 
L 134.813793 62.640268 
L 140.586207 63.891594 
L 146.358621 65.0537 
L 152.131034 59.862189 
L 157.903448 63.818553 
L 163.675862 68.230428 
L 169.448276 69.596597 
L 175.22069 74.097129 
L 180.993103 80.507143 
L 186.765517 82.877359 
L 192.537931 91.097489 
L 198.310345 93.734839 
L 204.082759 100.266526 
L 209.855172 103.073555 
L 215.627586 108.778299 
L 221.4 115.229076 
L 227.172414 121.797026 
L 232.944828 126.777757 
L 238.717241 130.294544 
L 244.489655 135.859941 
L 250.262069 133.427143 
L 256.034483 132.777023 
L 261.806897 138.459944 
L 267.57931 140.814775 
L 273.351724 145.275826 
L 279.124138 143.889926 
L 284.896552 149.435774 
L 290.668966 150.109369 
L 296.441379 155.045724 
L 302.213793 165.169903 
L 307.986207 154.742492 
L 313.758621 158.669276 
L 319.531034 166.151409 
L 325.303448 165.157604 
L 331.075862 166.888631 
L 336.848276 172.96639 
L 342.62069 173.445087 
L 348.393103 178.898258 
L 354.165517 171.778639 
L 359.937931 167.611348 
L 365.710345 174.972599 
L 371.482759 183.771549 
L 377.255172 166.729412 
L 383.027586 187.011706 
L 388.8 193.089315 
L 394.572414 194.279032 
L 400.344828 177.303737 
L 406.117241 173.764764 
L 411.889655 200.978882 
L 417.662069 190.905747 
L 423.434483 192.058734 
L 429.206897 208.849116 
L 433 210.071431 
" style="fill:none;stroke:#ff0000;stroke-linecap:square;stroke-width:1.5;"/>
   </g>
   <g id="line2d_16">
    <path clip-path="url(#pe862f217be)" d="M 65.544828 251.270927 
L 71.317241 247.260892 
L 77.089655 237.94234 
L 82.862069 224.509439 
L 88.634483 208.476881 
L 94.406897 190.430049 
L 100.17931 174.551366 
L 105.951724 164.879929 
L 111.724138 152.471895 
L 117.496552 143.746395 
L 123.268966 134.354344 
L 129.041379 128.776693 
L 134.813793 120.626922 
L 140.586207 118.056146 
L 146.358621 113.322946 
L 152.131034 109.236701 
L 157.903448 105.181567 
L 163.675862 107.369078 
L 169.448276 109.406466 
L 175.22069 105.812082 
L 180.993103 107.534059 
L 186.765517 113.777944 
L 192.537931 107.331377 
L 198.310345 113.276261 
L 204.082759 119.502299 
L 209.855172 118.444793 
L 215.627586 124.675553 
L 221.4 124.03531 
L 227.172414 125.248469 
L 232.944828 129.790782 
L 238.717241 130.845674 
L 244.489655 139.925898 
L 250.262069 141.769389 
L 256.034483 142.237833 
L 261.806897 142.635456 
L 267.57931 144.262512 
L 273.351724 146.943478 
L 279.124138 144.694962 
L 284.896552 150.441256 
L 290.668966 150.049172 
L 296.441379 153.267448 
L 302.213793 157.668747 
L 307.986207 155.835591 
L 313.758621 158.769453 
L 319.531034 165.136536 
L 325.303448 164.151107 
L 331.075862 162.3422 
L 336.848276 166.440742 
L 342.62069 171.949511 
L 348.393103 168.715145 
L 354.165517 172.409956 
L 359.937931 176.714692 
L 365.710345 181.310591 
L 371.482759 171.167286 
L 377.255172 188.561771 
L 383.027586 188.888697 
L 388.8 194.016 
L 394.572414 179.109994 
L 400.344828 199.94528 
L 406.117241 203.932042 
L 411.889655 188.047059 
L 417.662069 195.623067 
L 423.434483 213.665818 
L 429.206897 196.576414 
L 433 209.266862 
" style="fill:none;stroke:#0000ff;stroke-linecap:square;stroke-width:1.5;"/>
   </g>
   <g id="line2d_17">
    <path clip-path="url(#pe862f217be)" d="M 65.544828 251.756148 
L 71.317241 249.610214 
L 77.089655 246.244135 
L 82.862069 237.630375 
L 88.634483 227.222391 
L 94.406897 218.144548 
L 100.17931 208.440217 
L 105.951724 196.006023 
L 111.724138 191.167095 
L 117.496552 181.77124 
L 123.268966 171.856548 
L 129.041379 167.123148 
L 134.813793 159.226413 
L 140.586207 150.565701 
L 146.358621 148.781241 
L 152.131034 141.735189 
L 157.903448 133.804186 
L 163.675862 130.334549 
L 169.448276 130.354849 
L 175.22069 128.538131 
L 180.993103 127.920293 
L 186.765517 125.404188 
L 192.537931 127.978593 
L 198.310345 128.95545 
L 204.082759 126.32323 
L 209.855172 128.413083 
L 215.627586 130.53598 
L 221.4 130.962629 
L 227.172414 132.681156 
L 232.944828 131.300124 
L 238.717241 137.872184 
L 244.489655 144.116385 
L 250.262069 140.930209 
L 256.034483 139.693923 
L 261.806897 141.426931 
L 267.57931 143.597013 
L 273.351724 148.827707 
L 279.124138 144.440534 
L 284.896552 151.820386 
L 290.668966 160.818073 
L 296.441379 155.072981 
L 302.213793 157.625658 
L 307.986207 157.747544 
L 313.758621 154.518506 
L 319.531034 158.53069 
L 325.303448 164.289269 
L 331.075862 166.80651 
L 336.848276 169.217008 
L 342.62069 166.992593 
L 348.393103 167.012389 
L 354.165517 170.432443 
L 359.937931 181.230481 
L 365.710345 171.263497 
L 371.482759 170.827246 
L 377.255172 181.821211 
L 383.027586 185.106161 
L 388.8 188.613014 
L 394.572414 193.023569 
L 400.344828 190.483177 
L 406.117241 187.637376 
L 411.889655 190.674836 
L 417.662069 194.710419 
L 423.434483 201.0817 
L 429.206897 197.012802 
L 433 199.474472 
" style="fill:none;stroke:#808080;stroke-linecap:square;stroke-width:1.5;"/>
   </g>
   <g id="line2d_18">
    <path clip-path="url(#pe862f217be)" d="M 65.544828 251.951006 
L 71.317241 251.044559 
L 77.089655 250.113361 
L 82.862069 247.098729 
L 88.634483 243.174429 
L 94.406897 239.293463 
L 100.17931 233.896887 
L 105.951724 227.657451 
L 111.724138 223.036618 
L 117.496552 215.818776 
L 123.268966 209.707672 
L 129.041379 205.950414 
L 134.813793 195.842442 
L 140.586207 189.04127 
L 146.358621 182.112557 
L 152.131034 178.136685 
L 157.903448 171.435961 
L 163.675862 167.354969 
L 169.448276 162.526024 
L 175.22069 161.980917 
L 180.993103 157.407308 
L 186.765517 154.667588 
L 192.537931 153.411401 
L 198.310345 156.240622 
L 204.082759 154.566967 
L 209.855172 152.874978 
L 215.627586 153.032236 
L 221.4 155.654367 
L 227.172414 154.875919 
L 232.944828 155.839251 
L 238.717241 158.092702 
L 244.489655 157.180821 
L 250.262069 153.768883 
L 256.034483 157.851716 
L 261.806897 159.014793 
L 267.57931 158.007908 
L 273.351724 162.813051 
L 279.124138 158.719582 
L 284.896552 157.362655 
L 290.668966 163.205502 
L 296.441379 158.222864 
L 302.213793 158.515673 
L 307.986207 157.788746 
L 313.758621 165.805709 
L 319.531034 163.306962 
L 325.303448 163.883983 
L 331.075862 166.20763 
L 336.848276 168.30417 
L 342.62069 171.72899 
L 348.393103 178.10408 
L 354.165517 168.283413 
L 359.937931 176.380349 
L 365.710345 176.459483 
L 371.482759 184.755032 
L 377.255172 178.121672 
L 383.027586 180.025087 
L 388.8 184.182456 
L 394.572414 186.849438 
L 400.344828 193.823149 
L 406.117241 195.841162 
L 411.889655 197.515299 
L 417.662069 196.693976 
L 423.434483 211.520943 
L 429.206897 210.221984 
L 433 210.866952 
" style="fill:none;stroke:#008000;stroke-linecap:square;stroke-width:1.5;"/>
   </g>
   <g id="patch_3">
    <path d="M 54 252 
L 54 34.56 
" style="fill:none;stroke:#000000;stroke-linecap:square;stroke-linejoin:miter;stroke-width:0.8;"/>
   </g>
   <g id="patch_4">
    <path d="M 388.8 252 
L 388.8 34.56 
" style="fill:none;stroke:#000000;stroke-linecap:square;stroke-linejoin:miter;stroke-width:0.8;"/>
   </g>
   <g id="patch_5">
    <path d="M 54 252 
L 388.8 252 
" style="fill:none;stroke:#000000;stroke-linecap:square;stroke-linejoin:miter;stroke-width:0.8;"/>
   </g>
   <g id="patch_6">
    <path d="M 54 34.56 
L 388.8 34.56 
" style="fill:none;stroke:#000000;stroke-linecap:square;stroke-linejoin:miter;stroke-width:0.8;"/>
   </g>
   <g id="text_17">
    <!-- prawdopodobieństwo popełnienia błędu -->
    <g transform="translate(101.447813 15.122625)scale(0.12 -0.12)">
     <defs>
      <path d="M 2194 1759 
Q 1497 1759 1228 1600 
Q 959 1441 959 1056 
Q 959 750 1161 570 
Q 1363 391 1709 391 
Q 2188 391 2477 730 
Q 2766 1069 2766 1631 
L 2766 1759 
L 2194 1759 
z
M 3341 1997 
L 3341 0 
L 2766 0 
L 2766 531 
Q 2569 213 2275 61 
Q 1981 -91 1556 -91 
Q 1019 -91 701 211 
Q 384 513 384 1019 
Q 384 1609 779 1909 
Q 1175 2209 1959 2209 
L 2766 2209 
L 2766 2266 
Q 2766 2663 2505 2880 
Q 2244 3097 1772 3097 
Q 1472 3097 1187 3025 
Q 903 2953 641 2809 
L 641 3341 
Q 956 3463 1253 3523 
Q 1550 3584 1831 3584 
Q 2591 3584 2966 3190 
Q 3341 2797 3341 1997 
z
" id="DejaVuSans-61" transform="scale(0.015625)"/>
      <path d="M 269 3500 
L 844 3500 
L 1563 769 
L 2278 3500 
L 2956 3500 
L 3675 769 
L 4391 3500 
L 4966 3500 
L 4050 0 
L 3372 0 
L 2619 2869 
L 1863 0 
L 1184 0 
L 269 3500 
z
" id="DejaVuSans-77" transform="scale(0.015625)"/>
      <path d="M 2906 2969 
L 2906 4863 
L 3481 4863 
L 3481 0 
L 2906 0 
L 2906 525 
Q 2725 213 2448 61 
Q 2172 -91 1784 -91 
Q 1150 -91 751 415 
Q 353 922 353 1747 
Q 353 2572 751 3078 
Q 1150 3584 1784 3584 
Q 2172 3584 2448 3432 
Q 2725 3281 2906 2969 
z
M 947 1747 
Q 947 1113 1208 752 
Q 1469 391 1925 391 
Q 2381 391 2643 752 
Q 2906 1113 2906 1747 
Q 2906 2381 2643 2742 
Q 2381 3103 1925 3103 
Q 1469 3103 1208 2742 
Q 947 2381 947 1747 
z
" id="DejaVuSans-64" transform="scale(0.015625)"/>
      <path d="M 1959 3097 
Q 1497 3097 1228 2736 
Q 959 2375 959 1747 
Q 959 1119 1226 758 
Q 1494 397 1959 397 
Q 2419 397 2687 759 
Q 2956 1122 2956 1747 
Q 2956 2369 2687 2733 
Q 2419 3097 1959 3097 
z
M 1959 3584 
Q 2709 3584 3137 3096 
Q 3566 2609 3566 1747 
Q 3566 888 3137 398 
Q 2709 -91 1959 -91 
Q 1206 -91 779 398 
Q 353 888 353 1747 
Q 353 2609 779 3096 
Q 1206 3584 1959 3584 
z
" id="DejaVuSans-6f" transform="scale(0.015625)"/>
      <path d="M 3116 1747 
Q 3116 2381 2855 2742 
Q 2594 3103 2138 3103 
Q 1681 3103 1420 2742 
Q 1159 2381 1159 1747 
Q 1159 1113 1420 752 
Q 1681 391 2138 391 
Q 2594 391 2855 752 
Q 3116 1113 3116 1747 
z
M 1159 2969 
Q 1341 3281 1617 3432 
Q 1894 3584 2278 3584 
Q 2916 3584 3314 3078 
Q 3713 2572 3713 1747 
Q 3713 922 3314 415 
Q 2916 -91 2278 -91 
Q 1894 -91 1617 61 
Q 1341 213 1159 525 
L 1159 0 
L 581 0 
L 581 4863 
L 1159 4863 
L 1159 2969 
z
" id="DejaVuSans-62" transform="scale(0.015625)"/>
      <path d="M 603 3500 
L 1178 3500 
L 1178 0 
L 603 0 
L 603 3500 
z
M 603 4863 
L 1178 4863 
L 1178 4134 
L 603 4134 
L 603 4863 
z
" id="DejaVuSans-69" transform="scale(0.015625)"/>
      <path d="M 2241 5141 
L 2863 5141 
L 1844 3966 
L 1366 3966 
L 2241 5141 
z
M 3513 2113 
L 3513 0 
L 2938 0 
L 2938 2094 
Q 2938 2591 2744 2837 
Q 2550 3084 2163 3084 
Q 1697 3084 1428 2787 
Q 1159 2491 1159 1978 
L 1159 0 
L 581 0 
L 581 3500 
L 1159 3500 
L 1159 2956 
Q 1366 3272 1645 3428 
Q 1925 3584 2291 3584 
Q 2894 3584 3203 3211 
Q 3513 2838 3513 2113 
z
" id="DejaVuSans-144" transform="scale(0.015625)"/>
      <path d="M 2834 3397 
L 2834 2853 
Q 2591 2978 2328 3040 
Q 2066 3103 1784 3103 
Q 1356 3103 1142 2972 
Q 928 2841 928 2578 
Q 928 2378 1081 2264 
Q 1234 2150 1697 2047 
L 1894 2003 
Q 2506 1872 2764 1633 
Q 3022 1394 3022 966 
Q 3022 478 2636 193 
Q 2250 -91 1575 -91 
Q 1294 -91 989 -36 
Q 684 19 347 128 
L 347 722 
Q 666 556 975 473 
Q 1284 391 1588 391 
Q 1994 391 2212 530 
Q 2431 669 2431 922 
Q 2431 1156 2273 1281 
Q 2116 1406 1581 1522 
L 1381 1569 
Q 847 1681 609 1914 
Q 372 2147 372 2553 
Q 372 3047 722 3315 
Q 1072 3584 1716 3584 
Q 2034 3584 2315 3537 
Q 2597 3491 2834 3397 
z
" id="DejaVuSans-73" transform="scale(0.015625)"/>
      <path d="M 1172 4494 
L 1172 3500 
L 2356 3500 
L 2356 3053 
L 1172 3053 
L 1172 1153 
Q 1172 725 1289 603 
Q 1406 481 1766 481 
L 2356 481 
L 2356 0 
L 1766 0 
Q 1100 0 847 248 
Q 594 497 594 1153 
L 594 3053 
L 172 3053 
L 172 3500 
L 594 3500 
L 594 4494 
L 1172 4494 
z
" id="DejaVuSans-74" transform="scale(0.015625)"/>
      <path d="M 622 4863 
L 1197 4863 
L 1197 2981 
L 1588 3263 
L 1825 2931 
L 1197 2491 
L 1197 0 
L 622 0 
L 622 2081 
L 238 1806 
L 6 2138 
L 622 2578 
L 622 4863 
z
" id="DejaVuSans-142" transform="scale(0.015625)"/>
      <path d="M 3597 1894 
L 3597 1613 
L 953 1613 
Q 991 1019 1311 708 
Q 1631 397 2203 397 
Q 2534 397 2845 478 
Q 3156 559 3463 722 
L 3463 178 
Q 3153 47 2828 -22 
Q 2503 -91 2169 -91 
Q 1331 -91 842 396 
Q 353 884 353 1716 
Q 353 2575 817 3079 
Q 1281 3584 2069 3584 
Q 2775 3584 3186 3129 
Q 3597 2675 3597 1894 
z
M 3022 2063 
Q 3016 2534 2758 2815 
Q 2500 3097 2075 3097 
Q 1594 3097 1305 2825 
Q 1016 2553 972 2059 
L 3022 2063 
z
M 2550 0 
L 2922 0 
Q 2781 -191 2714 -328 
Q 2647 -466 2647 -563 
Q 2647 -706 2733 -778 
Q 2819 -850 2988 -850 
Q 3088 -850 3184 -826 
Q 3281 -803 3378 -756 
L 3378 -1172 
Q 3259 -1203 3153 -1218 
Q 3047 -1234 2953 -1234 
Q 2572 -1234 2392 -1098 
Q 2213 -963 2213 -672 
Q 2213 -522 2295 -358 
Q 2378 -194 2550 0 
z
" id="DejaVuSans-119" transform="scale(0.015625)"/>
     </defs>
     <use xlink:href="#DejaVuSans-70"/>
     <use x="63.476562" xlink:href="#DejaVuSans-72"/>
     <use x="104.589844" xlink:href="#DejaVuSans-61"/>
     <use x="165.869141" xlink:href="#DejaVuSans-77"/>
     <use x="247.65625" xlink:href="#DejaVuSans-64"/>
     <use x="311.132812" xlink:href="#DejaVuSans-6f"/>
     <use x="372.314453" xlink:href="#DejaVuSans-70"/>
     <use x="435.791016" xlink:href="#DejaVuSans-6f"/>
     <use x="496.972656" xlink:href="#DejaVuSans-64"/>
     <use x="560.449219" xlink:href="#DejaVuSans-6f"/>
     <use x="621.630859" xlink:href="#DejaVuSans-62"/>
     <use x="685.107422" xlink:href="#DejaVuSans-69"/>
     <use x="712.890625" xlink:href="#DejaVuSans-65"/>
     <use x="774.414062" xlink:href="#DejaVuSans-144"/>
     <use x="837.792969" xlink:href="#DejaVuSans-73"/>
     <use x="889.892578" xlink:href="#DejaVuSans-74"/>
     <use x="929.101562" xlink:href="#DejaVuSans-77"/>
     <use x="1010.888672" xlink:href="#DejaVuSans-6f"/>
     <use x="1072.070312" xlink:href="#DejaVuSans-20"/>
     <use x="1103.857422" xlink:href="#DejaVuSans-70"/>
     <use x="1167.333984" xlink:href="#DejaVuSans-6f"/>
     <use x="1228.515625" xlink:href="#DejaVuSans-70"/>
     <use x="1291.992188" xlink:href="#DejaVuSans-65"/>
     <use x="1353.515625" xlink:href="#DejaVuSans-142"/>
     <use x="1381.933594" xlink:href="#DejaVuSans-6e"/>
     <use x="1445.3125" xlink:href="#DejaVuSans-69"/>
     <use x="1473.095703" xlink:href="#DejaVuSans-65"/>
     <use x="1534.619141" xlink:href="#DejaVuSans-6e"/>
     <use x="1597.998047" xlink:href="#DejaVuSans-69"/>
     <use x="1625.78125" xlink:href="#DejaVuSans-61"/>
     <use x="1687.060547" xlink:href="#DejaVuSans-20"/>
     <use x="1718.847656" xlink:href="#DejaVuSans-62"/>
     <use x="1782.324219" xlink:href="#DejaVuSans-142"/>
     <use x="1810.742188" xlink:href="#DejaVuSans-119"/>
     <use x="1872.265625" xlink:href="#DejaVuSans-64"/>
     <use x="1935.742188" xlink:href="#DejaVuSans-75"/>
    </g>
    <!-- w konkretnym ruchu, format: 300+0 -->
    <g transform="translate(111.669375 28.56)scale(0.12 -0.12)">
     <defs>
      <path d="M 581 4863 
L 1159 4863 
L 1159 1991 
L 2875 3500 
L 3609 3500 
L 1753 1863 
L 3688 0 
L 2938 0 
L 1159 1709 
L 1159 0 
L 581 0 
L 581 4863 
z
" id="DejaVuSans-6b" transform="scale(0.015625)"/>
      <path d="M 2059 -325 
Q 1816 -950 1584 -1140 
Q 1353 -1331 966 -1331 
L 506 -1331 
L 506 -850 
L 844 -850 
Q 1081 -850 1212 -737 
Q 1344 -625 1503 -206 
L 1606 56 
L 191 3500 
L 800 3500 
L 1894 763 
L 2988 3500 
L 3597 3500 
L 2059 -325 
z
" id="DejaVuSans-79" transform="scale(0.015625)"/>
      <path d="M 750 794 
L 1409 794 
L 1409 256 
L 897 -744 
L 494 -744 
L 750 256 
L 750 794 
z
" id="DejaVuSans-2c" transform="scale(0.015625)"/>
      <path d="M 2375 4863 
L 2375 4384 
L 1825 4384 
Q 1516 4384 1395 4259 
Q 1275 4134 1275 3809 
L 1275 3500 
L 2222 3500 
L 2222 3053 
L 1275 3053 
L 1275 0 
L 697 0 
L 697 3053 
L 147 3053 
L 147 3500 
L 697 3500 
L 697 3744 
Q 697 4328 969 4595 
Q 1241 4863 1831 4863 
L 2375 4863 
z
" id="DejaVuSans-66" transform="scale(0.015625)"/>
      <path d="M 750 794 
L 1409 794 
L 1409 0 
L 750 0 
L 750 794 
z
M 750 3309 
L 1409 3309 
L 1409 2516 
L 750 2516 
L 750 3309 
z
" id="DejaVuSans-3a" transform="scale(0.015625)"/>
      <path d="M 2944 4013 
L 2944 2272 
L 4684 2272 
L 4684 1741 
L 2944 1741 
L 2944 0 
L 2419 0 
L 2419 1741 
L 678 1741 
L 678 2272 
L 2419 2272 
L 2419 4013 
L 2944 4013 
z
" id="DejaVuSans-2b" transform="scale(0.015625)"/>
     </defs>
     <use xlink:href="#DejaVuSans-77"/>
     <use x="81.787109" xlink:href="#DejaVuSans-20"/>
     <use x="113.574219" xlink:href="#DejaVuSans-6b"/>
     <use x="167.859375" xlink:href="#DejaVuSans-6f"/>
     <use x="229.041016" xlink:href="#DejaVuSans-6e"/>
     <use x="292.419922" xlink:href="#DejaVuSans-6b"/>
     <use x="350.330078" xlink:href="#DejaVuSans-72"/>
     <use x="389.193359" xlink:href="#DejaVuSans-65"/>
     <use x="450.716797" xlink:href="#DejaVuSans-74"/>
     <use x="489.925781" xlink:href="#DejaVuSans-6e"/>
     <use x="553.304688" xlink:href="#DejaVuSans-79"/>
     <use x="612.484375" xlink:href="#DejaVuSans-6d"/>
     <use x="709.896484" xlink:href="#DejaVuSans-20"/>
     <use x="741.683594" xlink:href="#DejaVuSans-72"/>
     <use x="782.796875" xlink:href="#DejaVuSans-75"/>
     <use x="846.175781" xlink:href="#DejaVuSans-63"/>
     <use x="901.15625" xlink:href="#DejaVuSans-68"/>
     <use x="964.535156" xlink:href="#DejaVuSans-75"/>
     <use x="1027.914062" xlink:href="#DejaVuSans-2c"/>
     <use x="1059.701172" xlink:href="#DejaVuSans-20"/>
     <use x="1091.488281" xlink:href="#DejaVuSans-66"/>
     <use x="1126.693359" xlink:href="#DejaVuSans-6f"/>
     <use x="1187.875" xlink:href="#DejaVuSans-72"/>
     <use x="1227.238281" xlink:href="#DejaVuSans-6d"/>
     <use x="1324.650391" xlink:href="#DejaVuSans-61"/>
     <use x="1385.929688" xlink:href="#DejaVuSans-74"/>
     <use x="1425.138672" xlink:href="#DejaVuSans-3a"/>
     <use x="1458.830078" xlink:href="#DejaVuSans-20"/>
     <use x="1490.617188" xlink:href="#DejaVuSans-33"/>
     <use x="1554.240234" xlink:href="#DejaVuSans-30"/>
     <use x="1617.863281" xlink:href="#DejaVuSans-30"/>
     <use x="1681.486328" xlink:href="#DejaVuSans-2b"/>
     <use x="1765.275391" xlink:href="#DejaVuSans-30"/>
    </g>
   </g>
   <g id="legend_1">
    <g id="patch_7">
     <path d="M 276.059375 101.2725 
L 381.8 101.2725 
Q 383.8 101.2725 383.8 99.2725 
L 383.8 41.56 
Q 383.8 39.56 381.8 39.56 
L 276.059375 39.56 
Q 274.059375 39.56 274.059375 41.56 
L 274.059375 99.2725 
Q 274.059375 101.2725 276.059375 101.2725 
z
" style="fill:#ffffff;opacity:0.8;stroke:#cccccc;stroke-linejoin:miter;"/>
    </g>
    <g id="line2d_19">
     <path d="M 278.059375 47.658437 
L 298.059375 47.658437 
" style="fill:none;stroke:#ff0000;stroke-linecap:square;stroke-width:1.5;"/>
    </g>
    <g id="line2d_20"/>
    <g id="text_18">
     <!-- format: 600+0 -->
     <g transform="translate(306.059375 51.158437)scale(0.1 -0.1)">
      <use xlink:href="#DejaVuSans-66"/>
      <use x="35.205078" xlink:href="#DejaVuSans-6f"/>
      <use x="96.386719" xlink:href="#DejaVuSans-72"/>
      <use x="135.75" xlink:href="#DejaVuSans-6d"/>
      <use x="233.162109" xlink:href="#DejaVuSans-61"/>
      <use x="294.441406" xlink:href="#DejaVuSans-74"/>
      <use x="333.650391" xlink:href="#DejaVuSans-3a"/>
      <use x="367.341797" xlink:href="#DejaVuSans-20"/>
      <use x="399.128906" xlink:href="#DejaVuSans-36"/>
      <use x="462.751953" xlink:href="#DejaVuSans-30"/>
      <use x="526.375" xlink:href="#DejaVuSans-30"/>
      <use x="589.998047" xlink:href="#DejaVuSans-2b"/>
      <use x="673.787109" xlink:href="#DejaVuSans-30"/>
     </g>
    </g>
    <g id="line2d_21">
     <path d="M 278.059375 62.336562 
L 298.059375 62.336562 
" style="fill:none;stroke:#0000ff;stroke-linecap:square;stroke-width:1.5;"/>
    </g>
    <g id="line2d_22"/>
    <g id="text_19">
     <!-- format: 600+0 -->
     <g transform="translate(306.059375 65.836562)scale(0.1 -0.1)">
      <use xlink:href="#DejaVuSans-66"/>
      <use x="35.205078" xlink:href="#DejaVuSans-6f"/>
      <use x="96.386719" xlink:href="#DejaVuSans-72"/>
      <use x="135.75" xlink:href="#DejaVuSans-6d"/>
      <use x="233.162109" xlink:href="#DejaVuSans-61"/>
      <use x="294.441406" xlink:href="#DejaVuSans-74"/>
      <use x="333.650391" xlink:href="#DejaVuSans-3a"/>
      <use x="367.341797" xlink:href="#DejaVuSans-20"/>
      <use x="399.128906" xlink:href="#DejaVuSans-36"/>
      <use x="462.751953" xlink:href="#DejaVuSans-30"/>
      <use x="526.375" xlink:href="#DejaVuSans-30"/>
      <use x="589.998047" xlink:href="#DejaVuSans-2b"/>
      <use x="673.787109" xlink:href="#DejaVuSans-30"/>
     </g>
    </g>
    <g id="line2d_23">
     <path d="M 278.059375 77.014687 
L 298.059375 77.014687 
" style="fill:none;stroke:#808080;stroke-linecap:square;stroke-width:1.5;"/>
    </g>
    <g id="line2d_24"/>
    <g id="text_20">
     <!-- format: 600+0 -->
     <g transform="translate(306.059375 80.514687)scale(0.1 -0.1)">
      <use xlink:href="#DejaVuSans-66"/>
      <use x="35.205078" xlink:href="#DejaVuSans-6f"/>
      <use x="96.386719" xlink:href="#DejaVuSans-72"/>
      <use x="135.75" xlink:href="#DejaVuSans-6d"/>
      <use x="233.162109" xlink:href="#DejaVuSans-61"/>
      <use x="294.441406" xlink:href="#DejaVuSans-74"/>
      <use x="333.650391" xlink:href="#DejaVuSans-3a"/>
      <use x="367.341797" xlink:href="#DejaVuSans-20"/>
      <use x="399.128906" xlink:href="#DejaVuSans-36"/>
      <use x="462.751953" xlink:href="#DejaVuSans-30"/>
      <use x="526.375" xlink:href="#DejaVuSans-30"/>
      <use x="589.998047" xlink:href="#DejaVuSans-2b"/>
      <use x="673.787109" xlink:href="#DejaVuSans-30"/>
     </g>
    </g>
    <g id="line2d_25">
     <path d="M 278.059375 91.692813 
L 298.059375 91.692813 
" style="fill:none;stroke:#008000;stroke-linecap:square;stroke-width:1.5;"/>
    </g>
    <g id="line2d_26"/>
    <g id="text_21">
     <!-- format: 600+0 -->
     <g transform="translate(306.059375 95.192813)scale(0.1 -0.1)">
      <use xlink:href="#DejaVuSans-66"/>
      <use x="35.205078" xlink:href="#DejaVuSans-6f"/>
      <use x="96.386719" xlink:href="#DejaVuSans-72"/>
      <use x="135.75" xlink:href="#DejaVuSans-6d"/>
      <use x="233.162109" xlink:href="#DejaVuSans-61"/>
      <use x="294.441406" xlink:href="#DejaVuSans-74"/>
      <use x="333.650391" xlink:href="#DejaVuSans-3a"/>
      <use x="367.341797" xlink:href="#DejaVuSans-20"/>
      <use x="399.128906" xlink:href="#DejaVuSans-36"/>
      <use x="462.751953" xlink:href="#DejaVuSans-30"/>
      <use x="526.375" xlink:href="#DejaVuSans-30"/>
      <use x="589.998047" xlink:href="#DejaVuSans-2b"/>
      <use x="673.787109" xlink:href="#DejaVuSans-30"/>
     </g>
    </g>
   </g>
  </g>
 </g>
 <defs>
  <clipPath id="pe862f217be">
   <rect height="217.44" width="334.8" x="54" y="34.56"/>
  </clipPath>
 </defs>
</svg>
