<?xml version="1.0" encoding="utf-8" standalone="no"?>
<!DOCTYPE svg PUBLIC "-//W3C//DTD SVG 1.1//EN"
  "http://www.w3.org/Graphics/SVG/1.1/DTD/svg11.dtd">
<svg height="288pt" version="1.1" viewBox="0 0 432 288" width="432pt" xmlns="http://www.w3.org/2000/svg" xmlns:xlink="http://www.w3.org/1999/xlink">
 <metadata>
  <rdf:RDF xmlns:cc="http://creativecommons.org/ns#" xmlns:dc="http://purl.org/dc/elements/1.1/" xmlns:rdf="http://www.w3.org/1999/02/22-rdf-syntax-ns#">
   <cc:Work>
    <dc:type rdf:resource="http://purl.org/dc/dcmitype/StillImage"/>
    <dc:date>2021-09-21T15:08:44.956223</dc:date>
    <dc:format>image/svg+xml</dc:format>
    <dc:creator>
     <cc:Agent>
      <dc:title>Matplotlib v3.4.2, https://matplotlib.org/</dc:title>
     </cc:Agent>
    </dc:creator>
   </cc:Work>
  </rdf:RDF>
 </metadata>
 <defs>
  <style type="text/css">*{stroke-linecap:butt;stroke-linejoin:round;}</style>
 </defs>
 <g id="figure_1">
  <g id="patch_1">
   <path d="M 0 288 
L 432 288 
L 432 0 
L 0 0 
z
" style="fill:none;"/>
  </g>
  <g id="axes_1">
   <g id="patch_2">
    <path d="M 54 252 
L 388.8 252 
L 388.8 34.56 
L 54 34.56 
z
" style="fill:#ffffff;"/>
   </g>
   <g id="matplotlib.axis_1">
    <g id="xtick_1">
     <g id="line2d_1">
      <defs>
       <path d="M 0 0 
L 0 3.5 
" id="m8f2a9f108e" style="stroke:#000000;stroke-width:0.8;"/>
      </defs>
      <g>
       <use style="stroke:#000000;stroke-width:0.8;" x="54" xlink:href="#m8f2a9f108e" y="252"/>
      </g>
     </g>
     <g id="text_1">
      <!-- 0 -->
      <g transform="translate(50.81875 266.598437)scale(0.1 -0.1)">
       <defs>
        <path d="M 2034 4250 
Q 1547 4250 1301 3770 
Q 1056 3291 1056 2328 
Q 1056 1369 1301 889 
Q 1547 409 2034 409 
Q 2525 409 2770 889 
Q 3016 1369 3016 2328 
Q 3016 3291 2770 3770 
Q 2525 4250 2034 4250 
z
M 2034 4750 
Q 2819 4750 3233 4129 
Q 3647 3509 3647 2328 
Q 3647 1150 3233 529 
Q 2819 -91 2034 -91 
Q 1250 -91 836 529 
Q 422 1150 422 2328 
Q 422 3509 836 4129 
Q 1250 4750 2034 4750 
z
" id="DejaVuSans-30" transform="scale(0.015625)"/>
       </defs>
       <use xlink:href="#DejaVuSans-30"/>
      </g>
     </g>
    </g>
    <g id="xtick_2">
     <g id="line2d_2">
      <g>
       <use style="stroke:#000000;stroke-width:0.8;" x="111.724138" xlink:href="#m8f2a9f108e" y="252"/>
      </g>
     </g>
     <g id="text_2">
      <!-- 10 -->
      <g transform="translate(105.361638 266.598437)scale(0.1 -0.1)">
       <defs>
        <path d="M 794 531 
L 1825 531 
L 1825 4091 
L 703 3866 
L 703 4441 
L 1819 4666 
L 2450 4666 
L 2450 531 
L 3481 531 
L 3481 0 
L 794 0 
L 794 531 
z
" id="DejaVuSans-31" transform="scale(0.015625)"/>
       </defs>
       <use xlink:href="#DejaVuSans-31"/>
       <use x="63.623047" xlink:href="#DejaVuSans-30"/>
      </g>
     </g>
    </g>
    <g id="xtick_3">
     <g id="line2d_3">
      <g>
       <use style="stroke:#000000;stroke-width:0.8;" x="169.448276" xlink:href="#m8f2a9f108e" y="252"/>
      </g>
     </g>
     <g id="text_3">
      <!-- 20 -->
      <g transform="translate(163.085776 266.598437)scale(0.1 -0.1)">
       <defs>
        <path d="M 1228 531 
L 3431 531 
L 3431 0 
L 469 0 
L 469 531 
Q 828 903 1448 1529 
Q 2069 2156 2228 2338 
Q 2531 2678 2651 2914 
Q 2772 3150 2772 3378 
Q 2772 3750 2511 3984 
Q 2250 4219 1831 4219 
Q 1534 4219 1204 4116 
Q 875 4013 500 3803 
L 500 4441 
Q 881 4594 1212 4672 
Q 1544 4750 1819 4750 
Q 2544 4750 2975 4387 
Q 3406 4025 3406 3419 
Q 3406 3131 3298 2873 
Q 3191 2616 2906 2266 
Q 2828 2175 2409 1742 
Q 1991 1309 1228 531 
z
" id="DejaVuSans-32" transform="scale(0.015625)"/>
       </defs>
       <use xlink:href="#DejaVuSans-32"/>
       <use x="63.623047" xlink:href="#DejaVuSans-30"/>
      </g>
     </g>
    </g>
    <g id="xtick_4">
     <g id="line2d_4">
      <g>
       <use style="stroke:#000000;stroke-width:0.8;" x="227.172414" xlink:href="#m8f2a9f108e" y="252"/>
      </g>
     </g>
     <g id="text_4">
      <!-- 30 -->
      <g transform="translate(220.809914 266.598437)scale(0.1 -0.1)">
       <defs>
        <path d="M 2597 2516 
Q 3050 2419 3304 2112 
Q 3559 1806 3559 1356 
Q 3559 666 3084 287 
Q 2609 -91 1734 -91 
Q 1441 -91 1130 -33 
Q 819 25 488 141 
L 488 750 
Q 750 597 1062 519 
Q 1375 441 1716 441 
Q 2309 441 2620 675 
Q 2931 909 2931 1356 
Q 2931 1769 2642 2001 
Q 2353 2234 1838 2234 
L 1294 2234 
L 1294 2753 
L 1863 2753 
Q 2328 2753 2575 2939 
Q 2822 3125 2822 3475 
Q 2822 3834 2567 4026 
Q 2313 4219 1838 4219 
Q 1578 4219 1281 4162 
Q 984 4106 628 3988 
L 628 4550 
Q 988 4650 1302 4700 
Q 1616 4750 1894 4750 
Q 2613 4750 3031 4423 
Q 3450 4097 3450 3541 
Q 3450 3153 3228 2886 
Q 3006 2619 2597 2516 
z
" id="DejaVuSans-33" transform="scale(0.015625)"/>
       </defs>
       <use xlink:href="#DejaVuSans-33"/>
       <use x="63.623047" xlink:href="#DejaVuSans-30"/>
      </g>
     </g>
    </g>
    <g id="xtick_5">
     <g id="line2d_5">
      <g>
       <use style="stroke:#000000;stroke-width:0.8;" x="284.896552" xlink:href="#m8f2a9f108e" y="252"/>
      </g>
     </g>
     <g id="text_5">
      <!-- 40 -->
      <g transform="translate(278.534052 266.598437)scale(0.1 -0.1)">
       <defs>
        <path d="M 2419 4116 
L 825 1625 
L 2419 1625 
L 2419 4116 
z
M 2253 4666 
L 3047 4666 
L 3047 1625 
L 3713 1625 
L 3713 1100 
L 3047 1100 
L 3047 0 
L 2419 0 
L 2419 1100 
L 313 1100 
L 313 1709 
L 2253 4666 
z
" id="DejaVuSans-34" transform="scale(0.015625)"/>
       </defs>
       <use xlink:href="#DejaVuSans-34"/>
       <use x="63.623047" xlink:href="#DejaVuSans-30"/>
      </g>
     </g>
    </g>
    <g id="xtick_6">
     <g id="line2d_6">
      <g>
       <use style="stroke:#000000;stroke-width:0.8;" x="342.62069" xlink:href="#m8f2a9f108e" y="252"/>
      </g>
     </g>
     <g id="text_6">
      <!-- 50 -->
      <g transform="translate(336.25819 266.598437)scale(0.1 -0.1)">
       <defs>
        <path d="M 691 4666 
L 3169 4666 
L 3169 4134 
L 1269 4134 
L 1269 2991 
Q 1406 3038 1543 3061 
Q 1681 3084 1819 3084 
Q 2600 3084 3056 2656 
Q 3513 2228 3513 1497 
Q 3513 744 3044 326 
Q 2575 -91 1722 -91 
Q 1428 -91 1123 -41 
Q 819 9 494 109 
L 494 744 
Q 775 591 1075 516 
Q 1375 441 1709 441 
Q 2250 441 2565 725 
Q 2881 1009 2881 1497 
Q 2881 1984 2565 2268 
Q 2250 2553 1709 2553 
Q 1456 2553 1204 2497 
Q 953 2441 691 2322 
L 691 4666 
z
" id="DejaVuSans-35" transform="scale(0.015625)"/>
       </defs>
       <use xlink:href="#DejaVuSans-35"/>
       <use x="63.623047" xlink:href="#DejaVuSans-30"/>
      </g>
     </g>
    </g>
    <g id="text_7">
     <!-- numer ruchu -->
     <g transform="translate(189.160156 280.276563)scale(0.1 -0.1)">
      <defs>
       <path d="M 3513 2113 
L 3513 0 
L 2938 0 
L 2938 2094 
Q 2938 2591 2744 2837 
Q 2550 3084 2163 3084 
Q 1697 3084 1428 2787 
Q 1159 2491 1159 1978 
L 1159 0 
L 581 0 
L 581 3500 
L 1159 3500 
L 1159 2956 
Q 1366 3272 1645 3428 
Q 1925 3584 2291 3584 
Q 2894 3584 3203 3211 
Q 3513 2838 3513 2113 
z
" id="DejaVuSans-6e" transform="scale(0.015625)"/>
       <path d="M 544 1381 
L 544 3500 
L 1119 3500 
L 1119 1403 
Q 1119 906 1312 657 
Q 1506 409 1894 409 
Q 2359 409 2629 706 
Q 2900 1003 2900 1516 
L 2900 3500 
L 3475 3500 
L 3475 0 
L 2900 0 
L 2900 538 
Q 2691 219 2414 64 
Q 2138 -91 1772 -91 
Q 1169 -91 856 284 
Q 544 659 544 1381 
z
M 1991 3584 
L 1991 3584 
z
" id="DejaVuSans-75" transform="scale(0.015625)"/>
       <path d="M 3328 2828 
Q 3544 3216 3844 3400 
Q 4144 3584 4550 3584 
Q 5097 3584 5394 3201 
Q 5691 2819 5691 2113 
L 5691 0 
L 5113 0 
L 5113 2094 
Q 5113 2597 4934 2840 
Q 4756 3084 4391 3084 
Q 3944 3084 3684 2787 
Q 3425 2491 3425 1978 
L 3425 0 
L 2847 0 
L 2847 2094 
Q 2847 2600 2669 2842 
Q 2491 3084 2119 3084 
Q 1678 3084 1418 2786 
Q 1159 2488 1159 1978 
L 1159 0 
L 581 0 
L 581 3500 
L 1159 3500 
L 1159 2956 
Q 1356 3278 1631 3431 
Q 1906 3584 2284 3584 
Q 2666 3584 2933 3390 
Q 3200 3197 3328 2828 
z
" id="DejaVuSans-6d" transform="scale(0.015625)"/>
       <path d="M 3597 1894 
L 3597 1613 
L 953 1613 
Q 991 1019 1311 708 
Q 1631 397 2203 397 
Q 2534 397 2845 478 
Q 3156 559 3463 722 
L 3463 178 
Q 3153 47 2828 -22 
Q 2503 -91 2169 -91 
Q 1331 -91 842 396 
Q 353 884 353 1716 
Q 353 2575 817 3079 
Q 1281 3584 2069 3584 
Q 2775 3584 3186 3129 
Q 3597 2675 3597 1894 
z
M 3022 2063 
Q 3016 2534 2758 2815 
Q 2500 3097 2075 3097 
Q 1594 3097 1305 2825 
Q 1016 2553 972 2059 
L 3022 2063 
z
" id="DejaVuSans-65" transform="scale(0.015625)"/>
       <path d="M 2631 2963 
Q 2534 3019 2420 3045 
Q 2306 3072 2169 3072 
Q 1681 3072 1420 2755 
Q 1159 2438 1159 1844 
L 1159 0 
L 581 0 
L 581 3500 
L 1159 3500 
L 1159 2956 
Q 1341 3275 1631 3429 
Q 1922 3584 2338 3584 
Q 2397 3584 2469 3576 
Q 2541 3569 2628 3553 
L 2631 2963 
z
" id="DejaVuSans-72" transform="scale(0.015625)"/>
       <path id="DejaVuSans-20" transform="scale(0.015625)"/>
       <path d="M 3122 3366 
L 3122 2828 
Q 2878 2963 2633 3030 
Q 2388 3097 2138 3097 
Q 1578 3097 1268 2742 
Q 959 2388 959 1747 
Q 959 1106 1268 751 
Q 1578 397 2138 397 
Q 2388 397 2633 464 
Q 2878 531 3122 666 
L 3122 134 
Q 2881 22 2623 -34 
Q 2366 -91 2075 -91 
Q 1284 -91 818 406 
Q 353 903 353 1747 
Q 353 2603 823 3093 
Q 1294 3584 2113 3584 
Q 2378 3584 2631 3529 
Q 2884 3475 3122 3366 
z
" id="DejaVuSans-63" transform="scale(0.015625)"/>
       <path d="M 3513 2113 
L 3513 0 
L 2938 0 
L 2938 2094 
Q 2938 2591 2744 2837 
Q 2550 3084 2163 3084 
Q 1697 3084 1428 2787 
Q 1159 2491 1159 1978 
L 1159 0 
L 581 0 
L 581 4863 
L 1159 4863 
L 1159 2956 
Q 1366 3272 1645 3428 
Q 1925 3584 2291 3584 
Q 2894 3584 3203 3211 
Q 3513 2838 3513 2113 
z
" id="DejaVuSans-68" transform="scale(0.015625)"/>
      </defs>
      <use xlink:href="#DejaVuSans-6e"/>
      <use x="63.378906" xlink:href="#DejaVuSans-75"/>
      <use x="126.757812" xlink:href="#DejaVuSans-6d"/>
      <use x="224.169922" xlink:href="#DejaVuSans-65"/>
      <use x="285.693359" xlink:href="#DejaVuSans-72"/>
      <use x="326.806641" xlink:href="#DejaVuSans-20"/>
      <use x="358.59375" xlink:href="#DejaVuSans-72"/>
      <use x="399.707031" xlink:href="#DejaVuSans-75"/>
      <use x="463.085938" xlink:href="#DejaVuSans-63"/>
      <use x="518.066406" xlink:href="#DejaVuSans-68"/>
      <use x="581.445312" xlink:href="#DejaVuSans-75"/>
     </g>
    </g>
   </g>
   <g id="matplotlib.axis_2">
    <g id="ytick_1">
     <g id="line2d_7">
      <defs>
       <path d="M 0 0 
L -3.5 0 
" id="m6ebfa68243" style="stroke:#000000;stroke-width:0.8;"/>
      </defs>
      <g>
       <use style="stroke:#000000;stroke-width:0.8;" x="54" xlink:href="#m6ebfa68243" y="252"/>
      </g>
     </g>
     <g id="text_8">
      <!-- 0.00 -->
      <g transform="translate(24.734375 255.799219)scale(0.1 -0.1)">
       <defs>
        <path d="M 684 794 
L 1344 794 
L 1344 0 
L 684 0 
L 684 794 
z
" id="DejaVuSans-2e" transform="scale(0.015625)"/>
       </defs>
       <use xlink:href="#DejaVuSans-30"/>
       <use x="63.623047" xlink:href="#DejaVuSans-2e"/>
       <use x="95.410156" xlink:href="#DejaVuSans-30"/>
       <use x="159.033203" xlink:href="#DejaVuSans-30"/>
      </g>
     </g>
    </g>
    <g id="ytick_2">
     <g id="line2d_8">
      <g>
       <use style="stroke:#000000;stroke-width:0.8;" x="54" xlink:href="#m6ebfa68243" y="223.008"/>
      </g>
     </g>
     <g id="text_9">
      <!-- 0.02 -->
      <g transform="translate(24.734375 226.807219)scale(0.1 -0.1)">
       <use xlink:href="#DejaVuSans-30"/>
       <use x="63.623047" xlink:href="#DejaVuSans-2e"/>
       <use x="95.410156" xlink:href="#DejaVuSans-30"/>
       <use x="159.033203" xlink:href="#DejaVuSans-32"/>
      </g>
     </g>
    </g>
    <g id="ytick_3">
     <g id="line2d_9">
      <g>
       <use style="stroke:#000000;stroke-width:0.8;" x="54" xlink:href="#m6ebfa68243" y="194.016"/>
      </g>
     </g>
     <g id="text_10">
      <!-- 0.04 -->
      <g transform="translate(24.734375 197.815219)scale(0.1 -0.1)">
       <use xlink:href="#DejaVuSans-30"/>
       <use x="63.623047" xlink:href="#DejaVuSans-2e"/>
       <use x="95.410156" xlink:href="#DejaVuSans-30"/>
       <use x="159.033203" xlink:href="#DejaVuSans-34"/>
      </g>
     </g>
    </g>
    <g id="ytick_4">
     <g id="line2d_10">
      <g>
       <use style="stroke:#000000;stroke-width:0.8;" x="54" xlink:href="#m6ebfa68243" y="165.024"/>
      </g>
     </g>
     <g id="text_11">
      <!-- 0.06 -->
      <g transform="translate(24.734375 168.823219)scale(0.1 -0.1)">
       <defs>
        <path d="M 2113 2584 
Q 1688 2584 1439 2293 
Q 1191 2003 1191 1497 
Q 1191 994 1439 701 
Q 1688 409 2113 409 
Q 2538 409 2786 701 
Q 3034 994 3034 1497 
Q 3034 2003 2786 2293 
Q 2538 2584 2113 2584 
z
M 3366 4563 
L 3366 3988 
Q 3128 4100 2886 4159 
Q 2644 4219 2406 4219 
Q 1781 4219 1451 3797 
Q 1122 3375 1075 2522 
Q 1259 2794 1537 2939 
Q 1816 3084 2150 3084 
Q 2853 3084 3261 2657 
Q 3669 2231 3669 1497 
Q 3669 778 3244 343 
Q 2819 -91 2113 -91 
Q 1303 -91 875 529 
Q 447 1150 447 2328 
Q 447 3434 972 4092 
Q 1497 4750 2381 4750 
Q 2619 4750 2861 4703 
Q 3103 4656 3366 4563 
z
" id="DejaVuSans-36" transform="scale(0.015625)"/>
       </defs>
       <use xlink:href="#DejaVuSans-30"/>
       <use x="63.623047" xlink:href="#DejaVuSans-2e"/>
       <use x="95.410156" xlink:href="#DejaVuSans-30"/>
       <use x="159.033203" xlink:href="#DejaVuSans-36"/>
      </g>
     </g>
    </g>
    <g id="ytick_5">
     <g id="line2d_11">
      <g>
       <use style="stroke:#000000;stroke-width:0.8;" x="54" xlink:href="#m6ebfa68243" y="136.032"/>
      </g>
     </g>
     <g id="text_12">
      <!-- 0.08 -->
      <g transform="translate(24.734375 139.831219)scale(0.1 -0.1)">
       <defs>
        <path d="M 2034 2216 
Q 1584 2216 1326 1975 
Q 1069 1734 1069 1313 
Q 1069 891 1326 650 
Q 1584 409 2034 409 
Q 2484 409 2743 651 
Q 3003 894 3003 1313 
Q 3003 1734 2745 1975 
Q 2488 2216 2034 2216 
z
M 1403 2484 
Q 997 2584 770 2862 
Q 544 3141 544 3541 
Q 544 4100 942 4425 
Q 1341 4750 2034 4750 
Q 2731 4750 3128 4425 
Q 3525 4100 3525 3541 
Q 3525 3141 3298 2862 
Q 3072 2584 2669 2484 
Q 3125 2378 3379 2068 
Q 3634 1759 3634 1313 
Q 3634 634 3220 271 
Q 2806 -91 2034 -91 
Q 1263 -91 848 271 
Q 434 634 434 1313 
Q 434 1759 690 2068 
Q 947 2378 1403 2484 
z
M 1172 3481 
Q 1172 3119 1398 2916 
Q 1625 2713 2034 2713 
Q 2441 2713 2670 2916 
Q 2900 3119 2900 3481 
Q 2900 3844 2670 4047 
Q 2441 4250 2034 4250 
Q 1625 4250 1398 4047 
Q 1172 3844 1172 3481 
z
" id="DejaVuSans-38" transform="scale(0.015625)"/>
       </defs>
       <use xlink:href="#DejaVuSans-30"/>
       <use x="63.623047" xlink:href="#DejaVuSans-2e"/>
       <use x="95.410156" xlink:href="#DejaVuSans-30"/>
       <use x="159.033203" xlink:href="#DejaVuSans-38"/>
      </g>
     </g>
    </g>
    <g id="ytick_6">
     <g id="line2d_12">
      <g>
       <use style="stroke:#000000;stroke-width:0.8;" x="54" xlink:href="#m6ebfa68243" y="107.04"/>
      </g>
     </g>
     <g id="text_13">
      <!-- 0.10 -->
      <g transform="translate(24.734375 110.839219)scale(0.1 -0.1)">
       <use xlink:href="#DejaVuSans-30"/>
       <use x="63.623047" xlink:href="#DejaVuSans-2e"/>
       <use x="95.410156" xlink:href="#DejaVuSans-31"/>
       <use x="159.033203" xlink:href="#DejaVuSans-30"/>
      </g>
     </g>
    </g>
    <g id="ytick_7">
     <g id="line2d_13">
      <g>
       <use style="stroke:#000000;stroke-width:0.8;" x="54" xlink:href="#m6ebfa68243" y="78.048"/>
      </g>
     </g>
     <g id="text_14">
      <!-- 0.12 -->
      <g transform="translate(24.734375 81.847219)scale(0.1 -0.1)">
       <use xlink:href="#DejaVuSans-30"/>
       <use x="63.623047" xlink:href="#DejaVuSans-2e"/>
       <use x="95.410156" xlink:href="#DejaVuSans-31"/>
       <use x="159.033203" xlink:href="#DejaVuSans-32"/>
      </g>
     </g>
    </g>
    <g id="ytick_8">
     <g id="line2d_14">
      <g>
       <use style="stroke:#000000;stroke-width:0.8;" x="54" xlink:href="#m6ebfa68243" y="49.056"/>
      </g>
     </g>
     <g id="text_15">
      <!-- 0.14 -->
      <g transform="translate(24.734375 52.855219)scale(0.1 -0.1)">
       <use xlink:href="#DejaVuSans-30"/>
       <use x="63.623047" xlink:href="#DejaVuSans-2e"/>
       <use x="95.410156" xlink:href="#DejaVuSans-31"/>
       <use x="159.033203" xlink:href="#DejaVuSans-34"/>
      </g>
     </g>
    </g>
    <g id="text_16">
     <!-- p -->
     <g transform="translate(18.654688 146.454219)rotate(-90)scale(0.1 -0.1)">
      <defs>
       <path d="M 1159 525 
L 1159 -1331 
L 581 -1331 
L 581 3500 
L 1159 3500 
L 1159 2969 
Q 1341 3281 1617 3432 
Q 1894 3584 2278 3584 
Q 2916 3584 3314 3078 
Q 3713 2572 3713 1747 
Q 3713 922 3314 415 
Q 2916 -91 2278 -91 
Q 1894 -91 1617 61 
Q 1341 213 1159 525 
z
M 3116 1747 
Q 3116 2381 2855 2742 
Q 2594 3103 2138 3103 
Q 1681 3103 1420 2742 
Q 1159 2381 1159 1747 
Q 1159 1113 1420 752 
Q 1681 391 2138 391 
Q 2594 391 2855 752 
Q 3116 1113 3116 1747 
z
" id="DejaVuSans-70" transform="scale(0.015625)"/>
      </defs>
      <use xlink:href="#DejaVuSans-70"/>
     </g>
    </g>
   </g>
   <g id="line2d_15">
    <path clip-path="url(#p1610b20374)" d="M 65.544828 248.757047 
L 71.317241 237.884232 
L 77.089655 216.528209 
L 82.862069 192.887508 
L 88.634483 169.346453 
L 94.406897 145.452107 
L 100.17931 124.358826 
L 105.951724 108.05279 
L 111.724138 97.487506 
L 117.496552 85.120913 
L 123.268966 79.981319 
L 129.041379 76.367621 
L 134.813793 72.488156 
L 140.586207 68.95742 
L 146.358621 67.849228 
L 152.131034 64.631124 
L 157.903448 60.230097 
L 163.675862 67.164475 
L 169.448276 71.397081 
L 175.22069 76.67173 
L 180.993103 82.158534 
L 186.765517 81.735188 
L 192.537931 88.798744 
L 198.310345 97.302399 
L 204.082759 100.16699 
L 209.855172 103.721251 
L 215.627586 104.541266 
L 221.4 113.53291 
L 227.172414 118.468708 
L 232.944828 121.813062 
L 238.717241 123.760761 
L 244.489655 124.659483 
L 250.262069 133.750007 
L 256.034483 133.508938 
L 261.806897 136.644507 
L 267.57931 138.176768 
L 273.351724 143.105456 
L 279.124138 145.026157 
L 284.896552 146.784999 
L 290.668966 147.663871 
L 296.441379 152.873551 
L 302.213793 160.493882 
L 307.986207 156.36071 
L 313.758621 154.409114 
L 319.531034 166.932276 
L 325.303448 162.769762 
L 331.075862 169.844684 
L 336.848276 174.422018 
L 342.62069 183.454281 
L 348.393103 178.513941 
L 354.165517 174.368529 
L 359.937931 177.458206 
L 365.710345 188.441512 
L 371.482759 190.454201 
L 377.255172 189.35397 
L 383.027586 202.097057 
L 388.8 184.077928 
L 394.572414 188.715962 
L 400.344828 190.408498 
L 406.117241 202.796867 
L 411.889655 171.864166 
L 417.662069 197.479646 
L 423.434483 184.107342 
L 429.206897 205.375439 
L 433 206.245819 
" style="fill:none;stroke:#ff0000;stroke-linecap:square;stroke-width:1.5;"/>
   </g>
   <g id="line2d_16">
    <path clip-path="url(#p1610b20374)" d="M 65.544828 251.45424 
L 71.317241 247.027205 
L 77.089655 240.232141 
L 82.862069 226.69564 
L 88.634483 215.62336 
L 94.406897 202.125999 
L 100.17931 188.739408 
L 105.951724 174.94861 
L 111.724138 167.111021 
L 117.496552 157.223576 
L 123.268966 146.936677 
L 129.041379 137.889625 
L 134.813793 130.215146 
L 140.586207 124.446181 
L 146.358621 119.995245 
L 152.131034 115.877511 
L 157.903448 114.968018 
L 163.675862 109.821894 
L 169.448276 103.074096 
L 175.22069 104.67781 
L 180.993103 105.918078 
L 186.765517 107.619791 
L 192.537931 107.304401 
L 198.310345 110.199131 
L 204.082759 110.754481 
L 209.855172 116.077836 
L 215.627586 113.047722 
L 221.4 119.722405 
L 227.172414 122.829574 
L 232.944828 130.302526 
L 238.717241 128.758492 
L 244.489655 122.427258 
L 250.262069 130.636547 
L 256.034483 136.020767 
L 261.806897 141.729968 
L 267.57931 141.523182 
L 273.351724 144.819557 
L 279.124138 138.439376 
L 284.896552 145.898811 
L 290.668966 149.1985 
L 296.441379 154.699088 
L 302.213793 158.72815 
L 307.986207 159.26773 
L 313.758621 159.384517 
L 319.531034 165.748512 
L 325.303448 164.089174 
L 331.075862 173.779342 
L 336.848276 169.508348 
L 342.62069 176.236934 
L 348.393103 176.258926 
L 354.165517 179.428715 
L 359.937931 182.307692 
L 365.710345 184.17616 
L 371.482759 183.253639 
L 377.255172 204.239359 
L 383.027586 201.112043 
L 388.8 194.519935 
L 394.572414 193.597595 
L 400.344828 205.053272 
L 406.117241 192.255098 
L 411.889655 199.980861 
L 417.662069 216.643902 
L 423.434483 214.23487 
L 429.206897 213.040985 
L 433 206.492907 
" style="fill:none;stroke:#ffa500;stroke-linecap:square;stroke-width:1.5;"/>
   </g>
   <g id="line2d_17">
    <path clip-path="url(#p1610b20374)" d="M 65.544828 251.739642 
L 71.317241 249.396418 
L 77.089655 246.903765 
L 82.862069 241.990698 
L 88.634483 234.541667 
L 94.406897 226.735128 
L 100.17931 218.708465 
L 105.951724 208.895896 
L 111.724138 199.174639 
L 117.496552 192.723377 
L 123.268966 182.289478 
L 129.041379 171.843584 
L 134.813793 164.351375 
L 140.586207 157.016715 
L 146.358621 148.403928 
L 152.131034 144.232351 
L 157.903448 133.617612 
L 163.675862 128.912956 
L 169.448276 125.873571 
L 175.22069 123.115193 
L 180.993103 123.302775 
L 186.765517 122.586739 
L 192.537931 123.729162 
L 198.310345 122.170259 
L 204.082759 121.028285 
L 209.855172 119.128726 
L 215.627586 120.908962 
L 221.4 120.915661 
L 227.172414 121.668991 
L 232.944828 125.12166 
L 238.717241 130.985721 
L 244.489655 124.719729 
L 250.262069 134.351843 
L 256.034483 134.64048 
L 261.806897 138.472571 
L 267.57931 145.074693 
L 273.351724 138.063158 
L 279.124138 139.878523 
L 284.896552 139.568562 
L 290.668966 140.567279 
L 296.441379 143.040821 
L 302.213793 149.716788 
L 307.986207 150.633905 
L 313.758621 154.724211 
L 319.531034 153.450326 
L 325.303448 153.513376 
L 331.075862 163.991768 
L 336.848276 165.744938 
L 342.62069 177.626223 
L 348.393103 174.830769 
L 354.165517 173.407229 
L 359.937931 176.756833 
L 365.710345 172.735928 
L 371.482759 184.144244 
L 377.255172 182.041751 
L 383.027586 184.617623 
L 388.8 183.979814 
L 394.572414 190.16539 
L 400.344828 186.702703 
L 406.117241 198.089256 
L 411.889655 178.069464 
L 417.662069 196.205664 
L 423.434483 196.156661 
L 429.206897 196.050526 
L 433 197.129297 
" style="fill:none;stroke:#f08080;stroke-linecap:square;stroke-width:1.5;"/>
   </g>
   <g id="line2d_18">
    <path clip-path="url(#p1610b20374)" d="M 65.544828 251.594055 
L 71.317241 251.156846 
L 77.089655 250.188429 
L 82.862069 248.282757 
L 88.634483 244.344377 
L 94.406897 241.933768 
L 100.17931 237.01374 
L 105.951724 232.641511 
L 111.724138 227.324622 
L 117.496552 221.934455 
L 123.268966 214.472461 
L 129.041379 208.601658 
L 134.813793 202.381144 
L 140.586207 194.928119 
L 146.358621 186.035275 
L 152.131034 176.933539 
L 157.903448 172.819749 
L 163.675862 168.078826 
L 169.448276 163.891223 
L 175.22069 158.515563 
L 180.993103 157.529193 
L 186.765517 150.945234 
L 192.537931 151.878075 
L 198.310345 149.00352 
L 204.082759 150.483881 
L 209.855172 146.225853 
L 215.627586 144.326037 
L 221.4 145.338792 
L 227.172414 147.256284 
L 232.944828 144.879524 
L 238.717241 143.172781 
L 244.489655 145.668963 
L 250.262069 145.007483 
L 256.034483 146.738739 
L 261.806897 144.997609 
L 267.57931 144.867531 
L 273.351724 150.034131 
L 279.124138 152.257317 
L 284.896552 153.501407 
L 290.668966 151.573236 
L 296.441379 152.350505 
L 302.213793 157.670466 
L 307.986207 154.149184 
L 313.758621 155.978837 
L 319.531034 157.457289 
L 325.303448 159.363674 
L 331.075862 169.890447 
L 336.848276 159.837062 
L 342.62069 165.032675 
L 348.393103 176.799227 
L 354.165517 174.248499 
L 359.937931 177.745537 
L 365.710345 182.423917 
L 371.482759 186.2994 
L 377.255172 192.618795 
L 383.027586 197.090909 
L 388.8 174.011272 
L 394.572414 182.821692 
L 400.344828 196.057414 
L 406.117241 201.127447 
L 411.889655 194.132903 
L 417.662069 194.349094 
L 423.434483 185.375907 
L 429.206897 197.992225 
L 433 198.439704 
" style="fill:none;stroke:#8b0000;stroke-linecap:square;stroke-width:1.5;"/>
   </g>
   <g id="patch_3">
    <path d="M 54 252 
L 54 34.56 
" style="fill:none;stroke:#000000;stroke-linecap:square;stroke-linejoin:miter;stroke-width:0.8;"/>
   </g>
   <g id="patch_4">
    <path d="M 388.8 252 
L 388.8 34.56 
" style="fill:none;stroke:#000000;stroke-linecap:square;stroke-linejoin:miter;stroke-width:0.8;"/>
   </g>
   <g id="patch_5">
    <path d="M 54 252 
L 388.8 252 
" style="fill:none;stroke:#000000;stroke-linecap:square;stroke-linejoin:miter;stroke-width:0.8;"/>
   </g>
   <g id="patch_6">
    <path d="M 54 34.56 
L 388.8 34.56 
" style="fill:none;stroke:#000000;stroke-linecap:square;stroke-linejoin:miter;stroke-width:0.8;"/>
   </g>
   <g id="text_17">
    <!-- prawdopodobieństwo popełnienia błędu -->
    <g transform="translate(101.447813 15.122625)scale(0.12 -0.12)">
     <defs>
      <path d="M 2194 1759 
Q 1497 1759 1228 1600 
Q 959 1441 959 1056 
Q 959 750 1161 570 
Q 1363 391 1709 391 
Q 2188 391 2477 730 
Q 2766 1069 2766 1631 
L 2766 1759 
L 2194 1759 
z
M 3341 1997 
L 3341 0 
L 2766 0 
L 2766 531 
Q 2569 213 2275 61 
Q 1981 -91 1556 -91 
Q 1019 -91 701 211 
Q 384 513 384 1019 
Q 384 1609 779 1909 
Q 1175 2209 1959 2209 
L 2766 2209 
L 2766 2266 
Q 2766 2663 2505 2880 
Q 2244 3097 1772 3097 
Q 1472 3097 1187 3025 
Q 903 2953 641 2809 
L 641 3341 
Q 956 3463 1253 3523 
Q 1550 3584 1831 3584 
Q 2591 3584 2966 3190 
Q 3341 2797 3341 1997 
z
" id="DejaVuSans-61" transform="scale(0.015625)"/>
      <path d="M 269 3500 
L 844 3500 
L 1563 769 
L 2278 3500 
L 2956 3500 
L 3675 769 
L 4391 3500 
L 4966 3500 
L 4050 0 
L 3372 0 
L 2619 2869 
L 1863 0 
L 1184 0 
L 269 3500 
z
" id="DejaVuSans-77" transform="scale(0.015625)"/>
      <path d="M 2906 2969 
L 2906 4863 
L 3481 4863 
L 3481 0 
L 2906 0 
L 2906 525 
Q 2725 213 2448 61 
Q 2172 -91 1784 -91 
Q 1150 -91 751 415 
Q 353 922 353 1747 
Q 353 2572 751 3078 
Q 1150 3584 1784 3584 
Q 2172 3584 2448 3432 
Q 2725 3281 2906 2969 
z
M 947 1747 
Q 947 1113 1208 752 
Q 1469 391 1925 391 
Q 2381 391 2643 752 
Q 2906 1113 2906 1747 
Q 2906 2381 2643 2742 
Q 2381 3103 1925 3103 
Q 1469 3103 1208 2742 
Q 947 2381 947 1747 
z
" id="DejaVuSans-64" transform="scale(0.015625)"/>
      <path d="M 1959 3097 
Q 1497 3097 1228 2736 
Q 959 2375 959 1747 
Q 959 1119 1226 758 
Q 1494 397 1959 397 
Q 2419 397 2687 759 
Q 2956 1122 2956 1747 
Q 2956 2369 2687 2733 
Q 2419 3097 1959 3097 
z
M 1959 3584 
Q 2709 3584 3137 3096 
Q 3566 2609 3566 1747 
Q 3566 888 3137 398 
Q 2709 -91 1959 -91 
Q 1206 -91 779 398 
Q 353 888 353 1747 
Q 353 2609 779 3096 
Q 1206 3584 1959 3584 
z
" id="DejaVuSans-6f" transform="scale(0.015625)"/>
      <path d="M 3116 1747 
Q 3116 2381 2855 2742 
Q 2594 3103 2138 3103 
Q 1681 3103 1420 2742 
Q 1159 2381 1159 1747 
Q 1159 1113 1420 752 
Q 1681 391 2138 391 
Q 2594 391 2855 752 
Q 3116 1113 3116 1747 
z
M 1159 2969 
Q 1341 3281 1617 3432 
Q 1894 3584 2278 3584 
Q 2916 3584 3314 3078 
Q 3713 2572 3713 1747 
Q 3713 922 3314 415 
Q 2916 -91 2278 -91 
Q 1894 -91 1617 61 
Q 1341 213 1159 525 
L 1159 0 
L 581 0 
L 581 4863 
L 1159 4863 
L 1159 2969 
z
" id="DejaVuSans-62" transform="scale(0.015625)"/>
      <path d="M 603 3500 
L 1178 3500 
L 1178 0 
L 603 0 
L 603 3500 
z
M 603 4863 
L 1178 4863 
L 1178 4134 
L 603 4134 
L 603 4863 
z
" id="DejaVuSans-69" transform="scale(0.015625)"/>
      <path d="M 2241 5141 
L 2863 5141 
L 1844 3966 
L 1366 3966 
L 2241 5141 
z
M 3513 2113 
L 3513 0 
L 2938 0 
L 2938 2094 
Q 2938 2591 2744 2837 
Q 2550 3084 2163 3084 
Q 1697 3084 1428 2787 
Q 1159 2491 1159 1978 
L 1159 0 
L 581 0 
L 581 3500 
L 1159 3500 
L 1159 2956 
Q 1366 3272 1645 3428 
Q 1925 3584 2291 3584 
Q 2894 3584 3203 3211 
Q 3513 2838 3513 2113 
z
" id="DejaVuSans-144" transform="scale(0.015625)"/>
      <path d="M 2834 3397 
L 2834 2853 
Q 2591 2978 2328 3040 
Q 2066 3103 1784 3103 
Q 1356 3103 1142 2972 
Q 928 2841 928 2578 
Q 928 2378 1081 2264 
Q 1234 2150 1697 2047 
L 1894 2003 
Q 2506 1872 2764 1633 
Q 3022 1394 3022 966 
Q 3022 478 2636 193 
Q 2250 -91 1575 -91 
Q 1294 -91 989 -36 
Q 684 19 347 128 
L 347 722 
Q 666 556 975 473 
Q 1284 391 1588 391 
Q 1994 391 2212 530 
Q 2431 669 2431 922 
Q 2431 1156 2273 1281 
Q 2116 1406 1581 1522 
L 1381 1569 
Q 847 1681 609 1914 
Q 372 2147 372 2553 
Q 372 3047 722 3315 
Q 1072 3584 1716 3584 
Q 2034 3584 2315 3537 
Q 2597 3491 2834 3397 
z
" id="DejaVuSans-73" transform="scale(0.015625)"/>
      <path d="M 1172 4494 
L 1172 3500 
L 2356 3500 
L 2356 3053 
L 1172 3053 
L 1172 1153 
Q 1172 725 1289 603 
Q 1406 481 1766 481 
L 2356 481 
L 2356 0 
L 1766 0 
Q 1100 0 847 248 
Q 594 497 594 1153 
L 594 3053 
L 172 3053 
L 172 3500 
L 594 3500 
L 594 4494 
L 1172 4494 
z
" id="DejaVuSans-74" transform="scale(0.015625)"/>
      <path d="M 622 4863 
L 1197 4863 
L 1197 2981 
L 1588 3263 
L 1825 2931 
L 1197 2491 
L 1197 0 
L 622 0 
L 622 2081 
L 238 1806 
L 6 2138 
L 622 2578 
L 622 4863 
z
" id="DejaVuSans-142" transform="scale(0.015625)"/>
      <path d="M 3597 1894 
L 3597 1613 
L 953 1613 
Q 991 1019 1311 708 
Q 1631 397 2203 397 
Q 2534 397 2845 478 
Q 3156 559 3463 722 
L 3463 178 
Q 3153 47 2828 -22 
Q 2503 -91 2169 -91 
Q 1331 -91 842 396 
Q 353 884 353 1716 
Q 353 2575 817 3079 
Q 1281 3584 2069 3584 
Q 2775 3584 3186 3129 
Q 3597 2675 3597 1894 
z
M 3022 2063 
Q 3016 2534 2758 2815 
Q 2500 3097 2075 3097 
Q 1594 3097 1305 2825 
Q 1016 2553 972 2059 
L 3022 2063 
z
M 2550 0 
L 2922 0 
Q 2781 -191 2714 -328 
Q 2647 -466 2647 -563 
Q 2647 -706 2733 -778 
Q 2819 -850 2988 -850 
Q 3088 -850 3184 -826 
Q 3281 -803 3378 -756 
L 3378 -1172 
Q 3259 -1203 3153 -1218 
Q 3047 -1234 2953 -1234 
Q 2572 -1234 2392 -1098 
Q 2213 -963 2213 -672 
Q 2213 -522 2295 -358 
Q 2378 -194 2550 0 
z
" id="DejaVuSans-119" transform="scale(0.015625)"/>
     </defs>
     <use xlink:href="#DejaVuSans-70"/>
     <use x="63.476562" xlink:href="#DejaVuSans-72"/>
     <use x="104.589844" xlink:href="#DejaVuSans-61"/>
     <use x="165.869141" xlink:href="#DejaVuSans-77"/>
     <use x="247.65625" xlink:href="#DejaVuSans-64"/>
     <use x="311.132812" xlink:href="#DejaVuSans-6f"/>
     <use x="372.314453" xlink:href="#DejaVuSans-70"/>
     <use x="435.791016" xlink:href="#DejaVuSans-6f"/>
     <use x="496.972656" xlink:href="#DejaVuSans-64"/>
     <use x="560.449219" xlink:href="#DejaVuSans-6f"/>
     <use x="621.630859" xlink:href="#DejaVuSans-62"/>
     <use x="685.107422" xlink:href="#DejaVuSans-69"/>
     <use x="712.890625" xlink:href="#DejaVuSans-65"/>
     <use x="774.414062" xlink:href="#DejaVuSans-144"/>
     <use x="837.792969" xlink:href="#DejaVuSans-73"/>
     <use x="889.892578" xlink:href="#DejaVuSans-74"/>
     <use x="929.101562" xlink:href="#DejaVuSans-77"/>
     <use x="1010.888672" xlink:href="#DejaVuSans-6f"/>
     <use x="1072.070312" xlink:href="#DejaVuSans-20"/>
     <use x="1103.857422" xlink:href="#DejaVuSans-70"/>
     <use x="1167.333984" xlink:href="#DejaVuSans-6f"/>
     <use x="1228.515625" xlink:href="#DejaVuSans-70"/>
     <use x="1291.992188" xlink:href="#DejaVuSans-65"/>
     <use x="1353.515625" xlink:href="#DejaVuSans-142"/>
     <use x="1381.933594" xlink:href="#DejaVuSans-6e"/>
     <use x="1445.3125" xlink:href="#DejaVuSans-69"/>
     <use x="1473.095703" xlink:href="#DejaVuSans-65"/>
     <use x="1534.619141" xlink:href="#DejaVuSans-6e"/>
     <use x="1597.998047" xlink:href="#DejaVuSans-69"/>
     <use x="1625.78125" xlink:href="#DejaVuSans-61"/>
     <use x="1687.060547" xlink:href="#DejaVuSans-20"/>
     <use x="1718.847656" xlink:href="#DejaVuSans-62"/>
     <use x="1782.324219" xlink:href="#DejaVuSans-142"/>
     <use x="1810.742188" xlink:href="#DejaVuSans-119"/>
     <use x="1872.265625" xlink:href="#DejaVuSans-64"/>
     <use x="1935.742188" xlink:href="#DejaVuSans-75"/>
    </g>
    <!-- w konkretnym ruchu, format: 300+0 -->
    <g transform="translate(111.669375 28.56)scale(0.12 -0.12)">
     <defs>
      <path d="M 581 4863 
L 1159 4863 
L 1159 1991 
L 2875 3500 
L 3609 3500 
L 1753 1863 
L 3688 0 
L 2938 0 
L 1159 1709 
L 1159 0 
L 581 0 
L 581 4863 
z
" id="DejaVuSans-6b" transform="scale(0.015625)"/>
      <path d="M 2059 -325 
Q 1816 -950 1584 -1140 
Q 1353 -1331 966 -1331 
L 506 -1331 
L 506 -850 
L 844 -850 
Q 1081 -850 1212 -737 
Q 1344 -625 1503 -206 
L 1606 56 
L 191 3500 
L 800 3500 
L 1894 763 
L 2988 3500 
L 3597 3500 
L 2059 -325 
z
" id="DejaVuSans-79" transform="scale(0.015625)"/>
      <path d="M 750 794 
L 1409 794 
L 1409 256 
L 897 -744 
L 494 -744 
L 750 256 
L 750 794 
z
" id="DejaVuSans-2c" transform="scale(0.015625)"/>
      <path d="M 2375 4863 
L 2375 4384 
L 1825 4384 
Q 1516 4384 1395 4259 
Q 1275 4134 1275 3809 
L 1275 3500 
L 2222 3500 
L 2222 3053 
L 1275 3053 
L 1275 0 
L 697 0 
L 697 3053 
L 147 3053 
L 147 3500 
L 697 3500 
L 697 3744 
Q 697 4328 969 4595 
Q 1241 4863 1831 4863 
L 2375 4863 
z
" id="DejaVuSans-66" transform="scale(0.015625)"/>
      <path d="M 750 794 
L 1409 794 
L 1409 0 
L 750 0 
L 750 794 
z
M 750 3309 
L 1409 3309 
L 1409 2516 
L 750 2516 
L 750 3309 
z
" id="DejaVuSans-3a" transform="scale(0.015625)"/>
      <path d="M 2944 4013 
L 2944 2272 
L 4684 2272 
L 4684 1741 
L 2944 1741 
L 2944 0 
L 2419 0 
L 2419 1741 
L 678 1741 
L 678 2272 
L 2419 2272 
L 2419 4013 
L 2944 4013 
z
" id="DejaVuSans-2b" transform="scale(0.015625)"/>
     </defs>
     <use xlink:href="#DejaVuSans-77"/>
     <use x="81.787109" xlink:href="#DejaVuSans-20"/>
     <use x="113.574219" xlink:href="#DejaVuSans-6b"/>
     <use x="167.859375" xlink:href="#DejaVuSans-6f"/>
     <use x="229.041016" xlink:href="#DejaVuSans-6e"/>
     <use x="292.419922" xlink:href="#DejaVuSans-6b"/>
     <use x="350.330078" xlink:href="#DejaVuSans-72"/>
     <use x="389.193359" xlink:href="#DejaVuSans-65"/>
     <use x="450.716797" xlink:href="#DejaVuSans-74"/>
     <use x="489.925781" xlink:href="#DejaVuSans-6e"/>
     <use x="553.304688" xlink:href="#DejaVuSans-79"/>
     <use x="612.484375" xlink:href="#DejaVuSans-6d"/>
     <use x="709.896484" xlink:href="#DejaVuSans-20"/>
     <use x="741.683594" xlink:href="#DejaVuSans-72"/>
     <use x="782.796875" xlink:href="#DejaVuSans-75"/>
     <use x="846.175781" xlink:href="#DejaVuSans-63"/>
     <use x="901.15625" xlink:href="#DejaVuSans-68"/>
     <use x="964.535156" xlink:href="#DejaVuSans-75"/>
     <use x="1027.914062" xlink:href="#DejaVuSans-2c"/>
     <use x="1059.701172" xlink:href="#DejaVuSans-20"/>
     <use x="1091.488281" xlink:href="#DejaVuSans-66"/>
     <use x="1126.693359" xlink:href="#DejaVuSans-6f"/>
     <use x="1187.875" xlink:href="#DejaVuSans-72"/>
     <use x="1227.238281" xlink:href="#DejaVuSans-6d"/>
     <use x="1324.650391" xlink:href="#DejaVuSans-61"/>
     <use x="1385.929688" xlink:href="#DejaVuSans-74"/>
     <use x="1425.138672" xlink:href="#DejaVuSans-3a"/>
     <use x="1458.830078" xlink:href="#DejaVuSans-20"/>
     <use x="1490.617188" xlink:href="#DejaVuSans-33"/>
     <use x="1554.240234" xlink:href="#DejaVuSans-30"/>
     <use x="1617.863281" xlink:href="#DejaVuSans-30"/>
     <use x="1681.486328" xlink:href="#DejaVuSans-2b"/>
     <use x="1765.275391" xlink:href="#DejaVuSans-30"/>
    </g>
   </g>
   <g id="legend_1">
    <g id="patch_7">
     <path d="M 276.059375 101.2725 
L 381.8 101.2725 
Q 383.8 101.2725 383.8 99.2725 
L 383.8 41.56 
Q 383.8 39.56 381.8 39.56 
L 276.059375 39.56 
Q 274.059375 39.56 274.059375 41.56 
L 274.059375 99.2725 
Q 274.059375 101.2725 276.059375 101.2725 
z
" style="fill:#ffffff;opacity:0.8;stroke:#cccccc;stroke-linejoin:miter;"/>
    </g>
    <g id="line2d_19">
     <path d="M 278.059375 47.658437 
L 298.059375 47.658437 
" style="fill:none;stroke:#ff0000;stroke-linecap:square;stroke-width:1.5;"/>
    </g>
    <g id="line2d_20"/>
    <g id="text_18">
     <!-- format: 300+0 -->
     <g transform="translate(306.059375 51.158437)scale(0.1 -0.1)">
      <use xlink:href="#DejaVuSans-66"/>
      <use x="35.205078" xlink:href="#DejaVuSans-6f"/>
      <use x="96.386719" xlink:href="#DejaVuSans-72"/>
      <use x="135.75" xlink:href="#DejaVuSans-6d"/>
      <use x="233.162109" xlink:href="#DejaVuSans-61"/>
      <use x="294.441406" xlink:href="#DejaVuSans-74"/>
      <use x="333.650391" xlink:href="#DejaVuSans-3a"/>
      <use x="367.341797" xlink:href="#DejaVuSans-20"/>
      <use x="399.128906" xlink:href="#DejaVuSans-33"/>
      <use x="462.751953" xlink:href="#DejaVuSans-30"/>
      <use x="526.375" xlink:href="#DejaVuSans-30"/>
      <use x="589.998047" xlink:href="#DejaVuSans-2b"/>
      <use x="673.787109" xlink:href="#DejaVuSans-30"/>
     </g>
    </g>
    <g id="line2d_21">
     <path d="M 278.059375 62.336562 
L 298.059375 62.336562 
" style="fill:none;stroke:#ffa500;stroke-linecap:square;stroke-width:1.5;"/>
    </g>
    <g id="line2d_22"/>
    <g id="text_19">
     <!-- format: 300+0 -->
     <g transform="translate(306.059375 65.836562)scale(0.1 -0.1)">
      <use xlink:href="#DejaVuSans-66"/>
      <use x="35.205078" xlink:href="#DejaVuSans-6f"/>
      <use x="96.386719" xlink:href="#DejaVuSans-72"/>
      <use x="135.75" xlink:href="#DejaVuSans-6d"/>
      <use x="233.162109" xlink:href="#DejaVuSans-61"/>
      <use x="294.441406" xlink:href="#DejaVuSans-74"/>
      <use x="333.650391" xlink:href="#DejaVuSans-3a"/>
      <use x="367.341797" xlink:href="#DejaVuSans-20"/>
      <use x="399.128906" xlink:href="#DejaVuSans-33"/>
      <use x="462.751953" xlink:href="#DejaVuSans-30"/>
      <use x="526.375" xlink:href="#DejaVuSans-30"/>
      <use x="589.998047" xlink:href="#DejaVuSans-2b"/>
      <use x="673.787109" xlink:href="#DejaVuSans-30"/>
     </g>
    </g>
    <g id="line2d_23">
     <path d="M 278.059375 77.014687 
L 298.059375 77.014687 
" style="fill:none;stroke:#f08080;stroke-linecap:square;stroke-width:1.5;"/>
    </g>
    <g id="line2d_24"/>
    <g id="text_20">
     <!-- format: 300+0 -->
     <g transform="translate(306.059375 80.514687)scale(0.1 -0.1)">
      <use xlink:href="#DejaVuSans-66"/>
      <use x="35.205078" xlink:href="#DejaVuSans-6f"/>
      <use x="96.386719" xlink:href="#DejaVuSans-72"/>
      <use x="135.75" xlink:href="#DejaVuSans-6d"/>
      <use x="233.162109" xlink:href="#DejaVuSans-61"/>
      <use x="294.441406" xlink:href="#DejaVuSans-74"/>
      <use x="333.650391" xlink:href="#DejaVuSans-3a"/>
      <use x="367.341797" xlink:href="#DejaVuSans-20"/>
      <use x="399.128906" xlink:href="#DejaVuSans-33"/>
      <use x="462.751953" xlink:href="#DejaVuSans-30"/>
      <use x="526.375" xlink:href="#DejaVuSans-30"/>
      <use x="589.998047" xlink:href="#DejaVuSans-2b"/>
      <use x="673.787109" xlink:href="#DejaVuSans-30"/>
     </g>
    </g>
    <g id="line2d_25">
     <path d="M 278.059375 91.692813 
L 298.059375 91.692813 
" style="fill:none;stroke:#8b0000;stroke-linecap:square;stroke-width:1.5;"/>
    </g>
    <g id="line2d_26"/>
    <g id="text_21">
     <!-- format: 300+0 -->
     <g transform="translate(306.059375 95.192813)scale(0.1 -0.1)">
      <use xlink:href="#DejaVuSans-66"/>
      <use x="35.205078" xlink:href="#DejaVuSans-6f"/>
      <use x="96.386719" xlink:href="#DejaVuSans-72"/>
      <use x="135.75" xlink:href="#DejaVuSans-6d"/>
      <use x="233.162109" xlink:href="#DejaVuSans-61"/>
      <use x="294.441406" xlink:href="#DejaVuSans-74"/>
      <use x="333.650391" xlink:href="#DejaVuSans-3a"/>
      <use x="367.341797" xlink:href="#DejaVuSans-20"/>
      <use x="399.128906" xlink:href="#DejaVuSans-33"/>
      <use x="462.751953" xlink:href="#DejaVuSans-30"/>
      <use x="526.375" xlink:href="#DejaVuSans-30"/>
      <use x="589.998047" xlink:href="#DejaVuSans-2b"/>
      <use x="673.787109" xlink:href="#DejaVuSans-30"/>
     </g>
    </g>
   </g>
  </g>
 </g>
 <defs>
  <clipPath id="p1610b20374">
   <rect height="217.44" width="334.8" x="54" y="34.56"/>
  </clipPath>
 </defs>
</svg>
