<?xml version="1.0" encoding="utf-8" standalone="no"?>
<!DOCTYPE svg PUBLIC "-//W3C//DTD SVG 1.1//EN"
  "http://www.w3.org/Graphics/SVG/1.1/DTD/svg11.dtd">
<svg height="288pt" version="1.1" viewBox="0 0 432 288" width="432pt" xmlns="http://www.w3.org/2000/svg" xmlns:xlink="http://www.w3.org/1999/xlink">
 <metadata>
  <rdf:RDF xmlns:cc="http://creativecommons.org/ns#" xmlns:dc="http://purl.org/dc/elements/1.1/" xmlns:rdf="http://www.w3.org/1999/02/22-rdf-syntax-ns#">
   <cc:Work>
    <dc:type rdf:resource="http://purl.org/dc/dcmitype/StillImage"/>
    <dc:date>2021-09-17T14:31:02.477759</dc:date>
    <dc:format>image/svg+xml</dc:format>
    <dc:creator>
     <cc:Agent>
      <dc:title>Matplotlib v3.4.2, https://matplotlib.org/</dc:title>
     </cc:Agent>
    </dc:creator>
   </cc:Work>
  </rdf:RDF>
 </metadata>
 <defs>
  <style type="text/css">*{stroke-linecap:butt;stroke-linejoin:round;}</style>
 </defs>
 <g id="figure_1">
  <g id="patch_1">
   <path d="M 0 288 
L 432 288 
L 432 0 
L 0 0 
z
" style="fill:none;"/>
  </g>
  <g id="axes_1">
   <g id="patch_2">
    <path d="M 54 252 
L 388.8 252 
L 388.8 34.56 
L 54 34.56 
z
" style="fill:#ffffff;"/>
   </g>
   <g id="matplotlib.axis_1">
    <g id="xtick_1">
     <g id="line2d_1">
      <defs>
       <path d="M 0 0 
L 0 3.5 
" id="me0d2112d80" style="stroke:#000000;stroke-width:0.8;"/>
      </defs>
      <g>
       <use style="stroke:#000000;stroke-width:0.8;" x="54" xlink:href="#me0d2112d80" y="252"/>
      </g>
     </g>
     <g id="text_1">
      <!-- 0 -->
      <g transform="translate(50.81875 266.598437)scale(0.1 -0.1)">
       <defs>
        <path d="M 2034 4250 
Q 1547 4250 1301 3770 
Q 1056 3291 1056 2328 
Q 1056 1369 1301 889 
Q 1547 409 2034 409 
Q 2525 409 2770 889 
Q 3016 1369 3016 2328 
Q 3016 3291 2770 3770 
Q 2525 4250 2034 4250 
z
M 2034 4750 
Q 2819 4750 3233 4129 
Q 3647 3509 3647 2328 
Q 3647 1150 3233 529 
Q 2819 -91 2034 -91 
Q 1250 -91 836 529 
Q 422 1150 422 2328 
Q 422 3509 836 4129 
Q 1250 4750 2034 4750 
z
" id="DejaVuSans-30" transform="scale(0.015625)"/>
       </defs>
       <use xlink:href="#DejaVuSans-30"/>
      </g>
     </g>
    </g>
    <g id="xtick_2">
     <g id="line2d_2">
      <g>
       <use style="stroke:#000000;stroke-width:0.8;" x="111.724138" xlink:href="#me0d2112d80" y="252"/>
      </g>
     </g>
     <g id="text_2">
      <!-- 10 -->
      <g transform="translate(105.361638 266.598437)scale(0.1 -0.1)">
       <defs>
        <path d="M 794 531 
L 1825 531 
L 1825 4091 
L 703 3866 
L 703 4441 
L 1819 4666 
L 2450 4666 
L 2450 531 
L 3481 531 
L 3481 0 
L 794 0 
L 794 531 
z
" id="DejaVuSans-31" transform="scale(0.015625)"/>
       </defs>
       <use xlink:href="#DejaVuSans-31"/>
       <use x="63.623047" xlink:href="#DejaVuSans-30"/>
      </g>
     </g>
    </g>
    <g id="xtick_3">
     <g id="line2d_3">
      <g>
       <use style="stroke:#000000;stroke-width:0.8;" x="169.448276" xlink:href="#me0d2112d80" y="252"/>
      </g>
     </g>
     <g id="text_3">
      <!-- 20 -->
      <g transform="translate(163.085776 266.598437)scale(0.1 -0.1)">
       <defs>
        <path d="M 1228 531 
L 3431 531 
L 3431 0 
L 469 0 
L 469 531 
Q 828 903 1448 1529 
Q 2069 2156 2228 2338 
Q 2531 2678 2651 2914 
Q 2772 3150 2772 3378 
Q 2772 3750 2511 3984 
Q 2250 4219 1831 4219 
Q 1534 4219 1204 4116 
Q 875 4013 500 3803 
L 500 4441 
Q 881 4594 1212 4672 
Q 1544 4750 1819 4750 
Q 2544 4750 2975 4387 
Q 3406 4025 3406 3419 
Q 3406 3131 3298 2873 
Q 3191 2616 2906 2266 
Q 2828 2175 2409 1742 
Q 1991 1309 1228 531 
z
" id="DejaVuSans-32" transform="scale(0.015625)"/>
       </defs>
       <use xlink:href="#DejaVuSans-32"/>
       <use x="63.623047" xlink:href="#DejaVuSans-30"/>
      </g>
     </g>
    </g>
    <g id="xtick_4">
     <g id="line2d_4">
      <g>
       <use style="stroke:#000000;stroke-width:0.8;" x="227.172414" xlink:href="#me0d2112d80" y="252"/>
      </g>
     </g>
     <g id="text_4">
      <!-- 30 -->
      <g transform="translate(220.809914 266.598437)scale(0.1 -0.1)">
       <defs>
        <path d="M 2597 2516 
Q 3050 2419 3304 2112 
Q 3559 1806 3559 1356 
Q 3559 666 3084 287 
Q 2609 -91 1734 -91 
Q 1441 -91 1130 -33 
Q 819 25 488 141 
L 488 750 
Q 750 597 1062 519 
Q 1375 441 1716 441 
Q 2309 441 2620 675 
Q 2931 909 2931 1356 
Q 2931 1769 2642 2001 
Q 2353 2234 1838 2234 
L 1294 2234 
L 1294 2753 
L 1863 2753 
Q 2328 2753 2575 2939 
Q 2822 3125 2822 3475 
Q 2822 3834 2567 4026 
Q 2313 4219 1838 4219 
Q 1578 4219 1281 4162 
Q 984 4106 628 3988 
L 628 4550 
Q 988 4650 1302 4700 
Q 1616 4750 1894 4750 
Q 2613 4750 3031 4423 
Q 3450 4097 3450 3541 
Q 3450 3153 3228 2886 
Q 3006 2619 2597 2516 
z
" id="DejaVuSans-33" transform="scale(0.015625)"/>
       </defs>
       <use xlink:href="#DejaVuSans-33"/>
       <use x="63.623047" xlink:href="#DejaVuSans-30"/>
      </g>
     </g>
    </g>
    <g id="xtick_5">
     <g id="line2d_5">
      <g>
       <use style="stroke:#000000;stroke-width:0.8;" x="284.896552" xlink:href="#me0d2112d80" y="252"/>
      </g>
     </g>
     <g id="text_5">
      <!-- 40 -->
      <g transform="translate(278.534052 266.598437)scale(0.1 -0.1)">
       <defs>
        <path d="M 2419 4116 
L 825 1625 
L 2419 1625 
L 2419 4116 
z
M 2253 4666 
L 3047 4666 
L 3047 1625 
L 3713 1625 
L 3713 1100 
L 3047 1100 
L 3047 0 
L 2419 0 
L 2419 1100 
L 313 1100 
L 313 1709 
L 2253 4666 
z
" id="DejaVuSans-34" transform="scale(0.015625)"/>
       </defs>
       <use xlink:href="#DejaVuSans-34"/>
       <use x="63.623047" xlink:href="#DejaVuSans-30"/>
      </g>
     </g>
    </g>
    <g id="xtick_6">
     <g id="line2d_6">
      <g>
       <use style="stroke:#000000;stroke-width:0.8;" x="342.62069" xlink:href="#me0d2112d80" y="252"/>
      </g>
     </g>
     <g id="text_6">
      <!-- 50 -->
      <g transform="translate(336.25819 266.598437)scale(0.1 -0.1)">
       <defs>
        <path d="M 691 4666 
L 3169 4666 
L 3169 4134 
L 1269 4134 
L 1269 2991 
Q 1406 3038 1543 3061 
Q 1681 3084 1819 3084 
Q 2600 3084 3056 2656 
Q 3513 2228 3513 1497 
Q 3513 744 3044 326 
Q 2575 -91 1722 -91 
Q 1428 -91 1123 -41 
Q 819 9 494 109 
L 494 744 
Q 775 591 1075 516 
Q 1375 441 1709 441 
Q 2250 441 2565 725 
Q 2881 1009 2881 1497 
Q 2881 1984 2565 2268 
Q 2250 2553 1709 2553 
Q 1456 2553 1204 2497 
Q 953 2441 691 2322 
L 691 4666 
z
" id="DejaVuSans-35" transform="scale(0.015625)"/>
       </defs>
       <use xlink:href="#DejaVuSans-35"/>
       <use x="63.623047" xlink:href="#DejaVuSans-30"/>
      </g>
     </g>
    </g>
    <g id="text_7">
     <!-- numer ruchu -->
     <g transform="translate(189.160156 280.276563)scale(0.1 -0.1)">
      <defs>
       <path d="M 3513 2113 
L 3513 0 
L 2938 0 
L 2938 2094 
Q 2938 2591 2744 2837 
Q 2550 3084 2163 3084 
Q 1697 3084 1428 2787 
Q 1159 2491 1159 1978 
L 1159 0 
L 581 0 
L 581 3500 
L 1159 3500 
L 1159 2956 
Q 1366 3272 1645 3428 
Q 1925 3584 2291 3584 
Q 2894 3584 3203 3211 
Q 3513 2838 3513 2113 
z
" id="DejaVuSans-6e" transform="scale(0.015625)"/>
       <path d="M 544 1381 
L 544 3500 
L 1119 3500 
L 1119 1403 
Q 1119 906 1312 657 
Q 1506 409 1894 409 
Q 2359 409 2629 706 
Q 2900 1003 2900 1516 
L 2900 3500 
L 3475 3500 
L 3475 0 
L 2900 0 
L 2900 538 
Q 2691 219 2414 64 
Q 2138 -91 1772 -91 
Q 1169 -91 856 284 
Q 544 659 544 1381 
z
M 1991 3584 
L 1991 3584 
z
" id="DejaVuSans-75" transform="scale(0.015625)"/>
       <path d="M 3328 2828 
Q 3544 3216 3844 3400 
Q 4144 3584 4550 3584 
Q 5097 3584 5394 3201 
Q 5691 2819 5691 2113 
L 5691 0 
L 5113 0 
L 5113 2094 
Q 5113 2597 4934 2840 
Q 4756 3084 4391 3084 
Q 3944 3084 3684 2787 
Q 3425 2491 3425 1978 
L 3425 0 
L 2847 0 
L 2847 2094 
Q 2847 2600 2669 2842 
Q 2491 3084 2119 3084 
Q 1678 3084 1418 2786 
Q 1159 2488 1159 1978 
L 1159 0 
L 581 0 
L 581 3500 
L 1159 3500 
L 1159 2956 
Q 1356 3278 1631 3431 
Q 1906 3584 2284 3584 
Q 2666 3584 2933 3390 
Q 3200 3197 3328 2828 
z
" id="DejaVuSans-6d" transform="scale(0.015625)"/>
       <path d="M 3597 1894 
L 3597 1613 
L 953 1613 
Q 991 1019 1311 708 
Q 1631 397 2203 397 
Q 2534 397 2845 478 
Q 3156 559 3463 722 
L 3463 178 
Q 3153 47 2828 -22 
Q 2503 -91 2169 -91 
Q 1331 -91 842 396 
Q 353 884 353 1716 
Q 353 2575 817 3079 
Q 1281 3584 2069 3584 
Q 2775 3584 3186 3129 
Q 3597 2675 3597 1894 
z
M 3022 2063 
Q 3016 2534 2758 2815 
Q 2500 3097 2075 3097 
Q 1594 3097 1305 2825 
Q 1016 2553 972 2059 
L 3022 2063 
z
" id="DejaVuSans-65" transform="scale(0.015625)"/>
       <path d="M 2631 2963 
Q 2534 3019 2420 3045 
Q 2306 3072 2169 3072 
Q 1681 3072 1420 2755 
Q 1159 2438 1159 1844 
L 1159 0 
L 581 0 
L 581 3500 
L 1159 3500 
L 1159 2956 
Q 1341 3275 1631 3429 
Q 1922 3584 2338 3584 
Q 2397 3584 2469 3576 
Q 2541 3569 2628 3553 
L 2631 2963 
z
" id="DejaVuSans-72" transform="scale(0.015625)"/>
       <path id="DejaVuSans-20" transform="scale(0.015625)"/>
       <path d="M 3122 3366 
L 3122 2828 
Q 2878 2963 2633 3030 
Q 2388 3097 2138 3097 
Q 1578 3097 1268 2742 
Q 959 2388 959 1747 
Q 959 1106 1268 751 
Q 1578 397 2138 397 
Q 2388 397 2633 464 
Q 2878 531 3122 666 
L 3122 134 
Q 2881 22 2623 -34 
Q 2366 -91 2075 -91 
Q 1284 -91 818 406 
Q 353 903 353 1747 
Q 353 2603 823 3093 
Q 1294 3584 2113 3584 
Q 2378 3584 2631 3529 
Q 2884 3475 3122 3366 
z
" id="DejaVuSans-63" transform="scale(0.015625)"/>
       <path d="M 3513 2113 
L 3513 0 
L 2938 0 
L 2938 2094 
Q 2938 2591 2744 2837 
Q 2550 3084 2163 3084 
Q 1697 3084 1428 2787 
Q 1159 2491 1159 1978 
L 1159 0 
L 581 0 
L 581 4863 
L 1159 4863 
L 1159 2956 
Q 1366 3272 1645 3428 
Q 1925 3584 2291 3584 
Q 2894 3584 3203 3211 
Q 3513 2838 3513 2113 
z
" id="DejaVuSans-68" transform="scale(0.015625)"/>
      </defs>
      <use xlink:href="#DejaVuSans-6e"/>
      <use x="63.378906" xlink:href="#DejaVuSans-75"/>
      <use x="126.757812" xlink:href="#DejaVuSans-6d"/>
      <use x="224.169922" xlink:href="#DejaVuSans-65"/>
      <use x="285.693359" xlink:href="#DejaVuSans-72"/>
      <use x="326.806641" xlink:href="#DejaVuSans-20"/>
      <use x="358.59375" xlink:href="#DejaVuSans-72"/>
      <use x="399.707031" xlink:href="#DejaVuSans-75"/>
      <use x="463.085938" xlink:href="#DejaVuSans-63"/>
      <use x="518.066406" xlink:href="#DejaVuSans-68"/>
      <use x="581.445312" xlink:href="#DejaVuSans-75"/>
     </g>
    </g>
   </g>
   <g id="matplotlib.axis_2">
    <g id="ytick_1">
     <g id="line2d_7">
      <defs>
       <path d="M 0 0 
L -3.5 0 
" id="m29202c3dcd" style="stroke:#000000;stroke-width:0.8;"/>
      </defs>
      <g>
       <use style="stroke:#000000;stroke-width:0.8;" x="54" xlink:href="#m29202c3dcd" y="217.973968"/>
      </g>
     </g>
     <g id="text_8">
      <!-- 0 -->
      <g transform="translate(40.6375 221.773187)scale(0.1 -0.1)">
       <use xlink:href="#DejaVuSans-30"/>
      </g>
     </g>
    </g>
    <g id="ytick_2">
     <g id="line2d_8">
      <g>
       <use style="stroke:#000000;stroke-width:0.8;" x="54" xlink:href="#m29202c3dcd" y="175.688635"/>
      </g>
     </g>
     <g id="text_9">
      <!-- 5 -->
      <g transform="translate(40.6375 179.487853)scale(0.1 -0.1)">
       <use xlink:href="#DejaVuSans-35"/>
      </g>
     </g>
    </g>
    <g id="ytick_3">
     <g id="line2d_9">
      <g>
       <use style="stroke:#000000;stroke-width:0.8;" x="54" xlink:href="#m29202c3dcd" y="133.403301"/>
      </g>
     </g>
     <g id="text_10">
      <!-- 10 -->
      <g transform="translate(34.275 137.20252)scale(0.1 -0.1)">
       <use xlink:href="#DejaVuSans-31"/>
       <use x="63.623047" xlink:href="#DejaVuSans-30"/>
      </g>
     </g>
    </g>
    <g id="ytick_4">
     <g id="line2d_10">
      <g>
       <use style="stroke:#000000;stroke-width:0.8;" x="54" xlink:href="#m29202c3dcd" y="91.117968"/>
      </g>
     </g>
     <g id="text_11">
      <!-- 15 -->
      <g transform="translate(34.275 94.917186)scale(0.1 -0.1)">
       <use xlink:href="#DejaVuSans-31"/>
       <use x="63.623047" xlink:href="#DejaVuSans-35"/>
      </g>
     </g>
    </g>
    <g id="ytick_5">
     <g id="line2d_11">
      <g>
       <use style="stroke:#000000;stroke-width:0.8;" x="54" xlink:href="#m29202c3dcd" y="48.832634"/>
      </g>
     </g>
     <g id="text_12">
      <!-- 20 -->
      <g transform="translate(34.275 52.631853)scale(0.1 -0.1)">
       <use xlink:href="#DejaVuSans-32"/>
       <use x="63.623047" xlink:href="#DejaVuSans-30"/>
      </g>
     </g>
    </g>
    <g id="text_13">
     <!-- średni czas [s] -->
     <g transform="translate(28.195312 179.362813)rotate(-90)scale(0.1 -0.1)">
      <defs>
       <path d="M 2241 5141 
L 2863 5141 
L 1844 3966 
L 1366 3966 
L 2241 5141 
z
M 2834 3397 
L 2834 2853 
Q 2591 2978 2328 3040 
Q 2066 3103 1784 3103 
Q 1356 3103 1142 2972 
Q 928 2841 928 2578 
Q 928 2378 1081 2264 
Q 1234 2150 1697 2047 
L 1894 2003 
Q 2506 1872 2764 1633 
Q 3022 1394 3022 966 
Q 3022 478 2636 193 
Q 2250 -91 1575 -91 
Q 1294 -91 989 -36 
Q 684 19 347 128 
L 347 722 
Q 666 556 975 473 
Q 1284 391 1588 391 
Q 1994 391 2212 530 
Q 2431 669 2431 922 
Q 2431 1156 2273 1281 
Q 2116 1406 1581 1522 
L 1381 1569 
Q 847 1681 609 1914 
Q 372 2147 372 2553 
Q 372 3047 722 3315 
Q 1072 3584 1716 3584 
Q 2034 3584 2315 3537 
Q 2597 3491 2834 3397 
z
" id="DejaVuSans-15b" transform="scale(0.015625)"/>
       <path d="M 2906 2969 
L 2906 4863 
L 3481 4863 
L 3481 0 
L 2906 0 
L 2906 525 
Q 2725 213 2448 61 
Q 2172 -91 1784 -91 
Q 1150 -91 751 415 
Q 353 922 353 1747 
Q 353 2572 751 3078 
Q 1150 3584 1784 3584 
Q 2172 3584 2448 3432 
Q 2725 3281 2906 2969 
z
M 947 1747 
Q 947 1113 1208 752 
Q 1469 391 1925 391 
Q 2381 391 2643 752 
Q 2906 1113 2906 1747 
Q 2906 2381 2643 2742 
Q 2381 3103 1925 3103 
Q 1469 3103 1208 2742 
Q 947 2381 947 1747 
z
" id="DejaVuSans-64" transform="scale(0.015625)"/>
       <path d="M 603 3500 
L 1178 3500 
L 1178 0 
L 603 0 
L 603 3500 
z
M 603 4863 
L 1178 4863 
L 1178 4134 
L 603 4134 
L 603 4863 
z
" id="DejaVuSans-69" transform="scale(0.015625)"/>
       <path d="M 353 3500 
L 3084 3500 
L 3084 2975 
L 922 459 
L 3084 459 
L 3084 0 
L 275 0 
L 275 525 
L 2438 3041 
L 353 3041 
L 353 3500 
z
" id="DejaVuSans-7a" transform="scale(0.015625)"/>
       <path d="M 2194 1759 
Q 1497 1759 1228 1600 
Q 959 1441 959 1056 
Q 959 750 1161 570 
Q 1363 391 1709 391 
Q 2188 391 2477 730 
Q 2766 1069 2766 1631 
L 2766 1759 
L 2194 1759 
z
M 3341 1997 
L 3341 0 
L 2766 0 
L 2766 531 
Q 2569 213 2275 61 
Q 1981 -91 1556 -91 
Q 1019 -91 701 211 
Q 384 513 384 1019 
Q 384 1609 779 1909 
Q 1175 2209 1959 2209 
L 2766 2209 
L 2766 2266 
Q 2766 2663 2505 2880 
Q 2244 3097 1772 3097 
Q 1472 3097 1187 3025 
Q 903 2953 641 2809 
L 641 3341 
Q 956 3463 1253 3523 
Q 1550 3584 1831 3584 
Q 2591 3584 2966 3190 
Q 3341 2797 3341 1997 
z
" id="DejaVuSans-61" transform="scale(0.015625)"/>
       <path d="M 2834 3397 
L 2834 2853 
Q 2591 2978 2328 3040 
Q 2066 3103 1784 3103 
Q 1356 3103 1142 2972 
Q 928 2841 928 2578 
Q 928 2378 1081 2264 
Q 1234 2150 1697 2047 
L 1894 2003 
Q 2506 1872 2764 1633 
Q 3022 1394 3022 966 
Q 3022 478 2636 193 
Q 2250 -91 1575 -91 
Q 1294 -91 989 -36 
Q 684 19 347 128 
L 347 722 
Q 666 556 975 473 
Q 1284 391 1588 391 
Q 1994 391 2212 530 
Q 2431 669 2431 922 
Q 2431 1156 2273 1281 
Q 2116 1406 1581 1522 
L 1381 1569 
Q 847 1681 609 1914 
Q 372 2147 372 2553 
Q 372 3047 722 3315 
Q 1072 3584 1716 3584 
Q 2034 3584 2315 3537 
Q 2597 3491 2834 3397 
z
" id="DejaVuSans-73" transform="scale(0.015625)"/>
       <path d="M 550 4863 
L 1875 4863 
L 1875 4416 
L 1125 4416 
L 1125 -397 
L 1875 -397 
L 1875 -844 
L 550 -844 
L 550 4863 
z
" id="DejaVuSans-5b" transform="scale(0.015625)"/>
       <path d="M 1947 4863 
L 1947 -844 
L 622 -844 
L 622 -397 
L 1369 -397 
L 1369 4416 
L 622 4416 
L 622 4863 
L 1947 4863 
z
" id="DejaVuSans-5d" transform="scale(0.015625)"/>
      </defs>
      <use xlink:href="#DejaVuSans-15b"/>
      <use x="52.099609" xlink:href="#DejaVuSans-72"/>
      <use x="90.962891" xlink:href="#DejaVuSans-65"/>
      <use x="152.486328" xlink:href="#DejaVuSans-64"/>
      <use x="215.962891" xlink:href="#DejaVuSans-6e"/>
      <use x="279.341797" xlink:href="#DejaVuSans-69"/>
      <use x="307.125" xlink:href="#DejaVuSans-20"/>
      <use x="338.912109" xlink:href="#DejaVuSans-63"/>
      <use x="393.892578" xlink:href="#DejaVuSans-7a"/>
      <use x="446.382812" xlink:href="#DejaVuSans-61"/>
      <use x="507.662109" xlink:href="#DejaVuSans-73"/>
      <use x="559.761719" xlink:href="#DejaVuSans-20"/>
      <use x="591.548828" xlink:href="#DejaVuSans-5b"/>
      <use x="630.5625" xlink:href="#DejaVuSans-73"/>
      <use x="682.662109" xlink:href="#DejaVuSans-5d"/>
     </g>
    </g>
   </g>
   <g id="line2d_12">
    <path clip-path="url(#p1fd6c636af)" d="M 59.772414 217.973968 
L 65.544828 177.547199 
L 71.317241 164.069963 
L 77.089655 151.88326 
L 82.862069 143.260829 
L 88.634483 133.996563 
L 94.406897 127.817553 
L 100.17931 122.093423 
L 105.951724 116.895638 
L 111.724138 113.352806 
L 117.496552 108.612896 
L 123.268966 105.532135 
L 129.041379 103.416917 
L 134.813793 100.815795 
L 140.586207 100.751276 
L 146.358621 100.039342 
L 152.131034 100.01203 
L 157.903448 100.220033 
L 163.675862 101.726214 
L 169.448276 103.544668 
L 175.22069 106.248821 
L 180.993103 107.552126 
L 186.765517 110.732742 
L 192.537931 113.57233 
L 198.310345 117.25955 
L 204.082759 121.419182 
L 209.855172 125.747768 
L 215.627586 129.30547 
L 221.4 133.196719 
L 227.172414 137.771906 
L 232.944828 142.148083 
L 238.717241 145.374791 
L 244.489655 148.632971 
L 250.262069 153.15677 
L 256.034483 155.739728 
L 261.806897 159.318526 
L 267.57931 162.456924 
L 273.351724 164.361068 
L 279.124138 167.235615 
L 284.896552 170.640242 
L 290.668966 172.708998 
L 296.441379 174.623365 
L 302.213793 174.756458 
L 307.986207 177.800845 
L 313.758621 177.683792 
L 319.531034 179.294127 
L 325.303448 182.385436 
L 331.075862 183.449134 
L 336.848276 184.039442 
L 342.62069 186.494208 
L 348.393103 187.583926 
L 354.165517 188.870333 
L 359.937931 188.639143 
L 365.710345 188.818204 
L 371.482759 189.890684 
L 377.255172 191.943776 
L 383.027586 192.658938 
L 388.8 191.934698 
L 394.572414 191.413493 
L 400.344828 191.520493 
L 406.117241 193.935333 
L 411.889655 194.552154 
L 417.662069 191.10577 
L 423.434483 193.716103 
L 429.206897 196.174404 
L 433 194.341903 
" style="fill:none;stroke:#6495ed;stroke-linecap:square;stroke-width:1.5;"/>
   </g>
   <g id="line2d_13">
    <path clip-path="url(#p1fd6c636af)" d="M 65.544828 166.728171 
L 71.317241 147.870825 
L 77.089655 134.569628 
L 82.862069 117.597964 
L 88.634483 109.994887 
L 94.406897 103.689842 
L 100.17931 100.172848 
L 105.951724 92.338664 
L 111.724138 88.19333 
L 117.496552 85.909981 
L 123.268966 80.253965 
L 129.041379 77.087411 
L 134.813793 72.012309 
L 140.586207 72.848138 
L 146.358621 69.519534 
L 152.131034 69.959658 
L 157.903448 71.708361 
L 163.675862 69.422668 
L 169.448276 71.204679 
L 175.22069 73.278272 
L 180.993103 74.155078 
L 186.765517 76.083182 
L 192.537931 79.540681 
L 198.310345 82.071452 
L 204.082759 85.802706 
L 209.855172 93.412358 
L 215.627586 98.407552 
L 221.4 105.190456 
L 227.172414 107.102126 
L 232.944828 113.63108 
L 238.717241 115.683532 
L 244.489655 117.944458 
L 250.262069 127.813211 
L 256.034483 132.346168 
L 261.806897 139.487244 
L 267.57931 143.505401 
L 273.351724 144.490715 
L 279.124138 150.335524 
L 284.896552 155.490921 
L 290.668966 152.743835 
L 296.441379 160.158883 
L 302.213793 159.900955 
L 307.986207 165.217981 
L 313.758621 162.339735 
L 319.531034 164.913516 
L 325.303448 167.8279 
L 331.075862 164.123671 
L 336.848276 165.526233 
L 342.62069 170.388873 
L 348.393103 175.645041 
L 354.165517 179.748027 
L 359.937931 183.201257 
L 365.710345 179.152975 
L 371.482759 169.629841 
L 377.255172 173.327246 
L 383.027586 185.633519 
L 388.8 184.525794 
L 394.572414 184.466856 
L 400.344828 177.361461 
L 406.117241 182.10434 
L 411.889655 184.311526 
L 417.662069 167.846627 
L 423.434483 186.389413 
L 429.206897 188.638518 
L 433 193.22818 
" style="fill:none;stroke:#ff0000;stroke-linecap:square;stroke-width:1.5;"/>
   </g>
   <g id="line2d_14">
    <path clip-path="url(#p1fd6c636af)" d="M 59.772414 217.973968 
L 65.544828 186.01817 
L 71.317241 176.707013 
L 77.089655 165.67875 
L 82.862069 158.149532 
L 88.634483 148.048881 
L 94.406897 141.369757 
L 100.17931 134.490982 
L 105.951724 128.454038 
L 111.724138 124.021886 
L 117.496552 118.301942 
L 123.268966 114.645558 
L 129.041379 112.819822 
L 134.813793 108.649525 
L 140.586207 106.711087 
L 146.358621 104.847509 
L 152.131034 103.432874 
L 157.903448 102.964385 
L 163.675862 103.318632 
L 169.448276 104.429083 
L 175.22069 103.824941 
L 180.993103 105.814986 
L 186.765517 108.309143 
L 192.537931 109.273717 
L 198.310345 114.31697 
L 204.082759 116.307879 
L 209.855172 120.183012 
L 215.627586 123.959935 
L 221.4 128.818055 
L 227.172414 133.22888 
L 232.944828 136.302921 
L 238.717241 139.988834 
L 244.489655 144.272657 
L 250.262069 147.964446 
L 256.034483 152.309542 
L 261.806897 155.510711 
L 267.57931 158.30891 
L 273.351724 161.758366 
L 279.124138 163.819159 
L 284.896552 167.199157 
L 290.668966 169.285951 
L 296.441379 171.40988 
L 302.213793 172.887203 
L 307.986207 174.786326 
L 313.758621 177.063707 
L 319.531034 178.449184 
L 325.303448 179.596165 
L 331.075862 181.773371 
L 336.848276 183.523309 
L 342.62069 184.054966 
L 348.393103 185.488367 
L 354.165517 187.009093 
L 359.937931 187.995136 
L 365.710345 187.979087 
L 371.482759 190.058181 
L 377.255172 190.650156 
L 383.027586 190.960752 
L 388.8 191.615081 
L 394.572414 192.536323 
L 400.344828 193.282457 
L 406.117241 194.15302 
L 411.889655 194.568483 
L 417.662069 194.319133 
L 423.434483 194.9179 
L 429.206897 195.93641 
L 433 195.051097 
" style="fill:none;stroke:#0000ff;stroke-linecap:square;stroke-width:1.5;"/>
   </g>
   <g id="line2d_15">
    <path clip-path="url(#p1fd6c636af)" d="M 65.544828 172.634694 
L 71.317241 165.35222 
L 77.089655 140.190889 
L 82.862069 121.023303 
L 88.634483 117.128181 
L 94.406897 110.452398 
L 100.17931 101.844221 
L 105.951724 96.399401 
L 111.724138 94.244626 
L 117.496552 86.009607 
L 123.268966 85.811573 
L 129.041379 86.97665 
L 134.813793 78.133283 
L 140.586207 72.746002 
L 146.358621 74.655003 
L 152.131034 70.805434 
L 157.903448 70.824137 
L 163.675862 69.794478 
L 169.448276 66.475107 
L 175.22069 71.79797 
L 180.993103 69.494294 
L 186.765517 69.393019 
L 192.537931 72.560114 
L 198.310345 76.032541 
L 204.082759 77.125746 
L 209.855172 82.292531 
L 215.627586 82.01302 
L 221.4 90.253761 
L 227.172414 98.315776 
L 232.944828 107.482152 
L 238.717241 111.761311 
L 244.489655 114.953005 
L 250.262069 122.00719 
L 256.034483 125.461909 
L 261.806897 127.813491 
L 267.57931 130.607918 
L 273.351724 139.634131 
L 279.124138 141.522648 
L 284.896552 146.592105 
L 290.668966 151.838999 
L 296.441379 152.10315 
L 302.213793 147.896165 
L 307.986207 164.471101 
L 313.758621 161.569511 
L 319.531034 159.459284 
L 325.303448 157.912635 
L 331.075862 163.863709 
L 336.848276 172.925852 
L 342.62069 167.400709 
L 348.393103 173.111481 
L 354.165517 173.743509 
L 359.937931 173.566329 
L 365.710345 171.851287 
L 371.482759 185.696164 
L 377.255172 183.562455 
L 383.027586 176.529088 
L 388.8 175.441713 
L 394.572414 178.965748 
L 400.344828 186.320376 
L 406.117241 188.2317 
L 411.889655 198.005894 
L 417.662069 187.061931 
L 423.434483 176.001859 
L 429.206897 186.40886 
L 433 184.921719 
" style="fill:none;stroke:#ffa500;stroke-linecap:square;stroke-width:1.5;"/>
   </g>
   <g id="line2d_16">
    <path clip-path="url(#p1fd6c636af)" d="M 59.772414 217.973968 
L 65.544828 190.548324 
L 71.317241 184.343879 
L 77.089655 175.739858 
L 82.862069 167.375181 
L 88.634483 157.8898 
L 94.406897 151.210744 
L 100.17931 143.468338 
L 105.951724 137.017351 
L 111.724138 130.810563 
L 117.496552 124.913671 
L 123.268966 121.878011 
L 129.041379 116.628634 
L 134.813793 113.212782 
L 140.586207 109.871316 
L 146.358621 107.991562 
L 152.131034 106.894499 
L 157.903448 105.136841 
L 163.675862 105.155953 
L 169.448276 103.94058 
L 175.22069 104.97948 
L 180.993103 105.252237 
L 186.765517 105.9428 
L 192.537931 109.026787 
L 198.310345 109.29309 
L 204.082759 114.069111 
L 209.855172 117.246381 
L 215.627586 119.544801 
L 221.4 123.44754 
L 227.172414 127.79973 
L 232.944828 131.971593 
L 238.717241 135.626691 
L 244.489655 139.555021 
L 250.262069 142.954548 
L 256.034483 147.268497 
L 261.806897 150.503244 
L 267.57931 154.433195 
L 273.351724 157.620466 
L 279.124138 160.392564 
L 284.896552 162.720289 
L 290.668966 165.955359 
L 296.441379 168.673437 
L 302.213793 170.751046 
L 307.986207 172.586171 
L 313.758621 173.637361 
L 319.531034 176.06823 
L 325.303448 177.773419 
L 331.075862 179.875658 
L 336.848276 181.188579 
L 342.62069 182.692687 
L 348.393103 182.926857 
L 354.165517 185.228915 
L 359.937931 187.201885 
L 365.710345 186.589437 
L 371.482759 187.598503 
L 377.255172 188.815084 
L 383.027586 189.691118 
L 388.8 191.695868 
L 394.572414 192.272933 
L 400.344828 191.356895 
L 406.117241 192.591559 
L 411.889655 193.466363 
L 417.662069 193.831659 
L 423.434483 194.033061 
L 429.206897 194.294983 
L 433 195.116081 
" style="fill:none;stroke:#9400d3;stroke-linecap:square;stroke-width:1.5;"/>
   </g>
   <g id="line2d_17">
    <path clip-path="url(#p1fd6c636af)" d="M 65.544828 179.917168 
L 71.317241 171.373805 
L 77.089655 142.147048 
L 82.862069 127.645604 
L 88.634483 127.195897 
L 94.406897 116.892176 
L 100.17931 102.205382 
L 105.951724 99.374559 
L 111.724138 102.158471 
L 117.496552 89.585479 
L 123.268966 88.482546 
L 129.041379 83.448188 
L 134.813793 79.099299 
L 140.586207 77.806908 
L 146.358621 75.50819 
L 152.131034 70.770229 
L 157.903448 68.011405 
L 163.675862 70.819103 
L 169.448276 67.759605 
L 175.22069 70.108791 
L 180.993103 66.195926 
L 186.765517 56.849738 
L 192.537931 64.632921 
L 198.310345 63.640325 
L 204.082759 75.048051 
L 209.855172 76.796765 
L 215.627586 77.029564 
L 221.4 84.746079 
L 227.172414 88.611679 
L 232.944828 89.364117 
L 238.717241 100.483842 
L 244.489655 104.077972 
L 250.262069 112.795385 
L 256.034483 114.525204 
L 261.806897 119.469486 
L 267.57931 123.703613 
L 273.351724 133.993169 
L 279.124138 138.43897 
L 284.896552 135.889695 
L 290.668966 146.247719 
L 296.441379 148.489977 
L 302.213793 150.408005 
L 307.986207 150.255159 
L 313.758621 158.233566 
L 319.531034 157.429738 
L 325.303448 161.909887 
L 331.075862 163.681459 
L 336.848276 165.519776 
L 342.62069 174.501678 
L 348.393103 168.827241 
L 354.165517 172.945802 
L 359.937931 172.131049 
L 365.710345 166.848495 
L 371.482759 174.741948 
L 377.255172 173.83988 
L 383.027586 171.615074 
L 388.8 182.83687 
L 394.572414 183.445806 
L 400.344828 183.118772 
L 406.117241 171.712551 
L 411.889655 177.729996 
L 417.662069 186.110474 
L 423.434483 184.354518 
L 429.206897 184.145701 
L 433 186.964577 
" style="fill:none;stroke:#f08080;stroke-linecap:square;stroke-width:1.5;"/>
   </g>
   <g id="line2d_18">
    <path clip-path="url(#p1fd6c636af)" d="M 59.772414 217.973968 
L 65.544828 191.843727 
L 71.317241 188.71547 
L 77.089655 183.111207 
L 82.862069 175.272301 
L 88.634483 166.034306 
L 94.406897 158.905447 
L 100.17931 150.586845 
L 105.951724 141.0749 
L 111.724138 133.737364 
L 117.496552 126.122644 
L 123.268966 119.171211 
L 129.041379 113.027246 
L 134.813793 110.052199 
L 140.586207 105.77878 
L 146.358621 100.94251 
L 152.131034 99.377894 
L 157.903448 97.266873 
L 163.675862 97.333974 
L 169.448276 96.633278 
L 175.22069 98.376761 
L 180.993103 99.214143 
L 186.765517 99.113318 
L 192.537931 100.461021 
L 198.310345 103.759366 
L 204.082759 105.634221 
L 209.855172 108.528328 
L 215.627586 113.033898 
L 221.4 116.060988 
L 227.172414 120.558168 
L 232.944828 125.44045 
L 238.717241 128.06795 
L 244.489655 133.826271 
L 250.262069 136.580399 
L 256.034483 141.469263 
L 261.806897 146.341235 
L 267.57931 149.997403 
L 273.351724 153.428852 
L 279.124138 156.12763 
L 284.896552 158.581675 
L 290.668966 161.643073 
L 296.441379 164.600445 
L 302.213793 166.921397 
L 307.986207 169.050259 
L 313.758621 172.511634 
L 319.531034 172.873696 
L 325.303448 176.406356 
L 331.075862 178.114411 
L 336.848276 179.305736 
L 342.62069 181.097117 
L 348.393103 183.515161 
L 354.165517 183.476092 
L 359.937931 185.865707 
L 365.710345 185.969447 
L 371.482759 188.323119 
L 377.255172 189.206345 
L 383.027586 189.641321 
L 388.8 191.13024 
L 394.572414 192.022262 
L 400.344828 193.81226 
L 406.117241 193.602053 
L 411.889655 195.1278 
L 417.662069 195.450902 
L 423.434483 195.94571 
L 429.206897 196.865311 
L 433 197.350749 
" style="fill:none;stroke:#191970;stroke-linecap:square;stroke-width:1.5;"/>
   </g>
   <g id="line2d_19">
    <path clip-path="url(#p1fd6c636af)" d="M 65.544828 184.145701 
L 71.317241 166.364176 
L 77.089655 157.895845 
L 82.862069 135.179285 
L 88.634483 113.388243 
L 94.406897 100.097479 
L 100.17931 95.799763 
L 105.951724 89.108452 
L 111.724138 87.861925 
L 117.496552 81.162693 
L 123.268966 71.320178 
L 129.041379 72.63907 
L 134.813793 62.289643 
L 140.586207 64.668739 
L 146.358621 54.10433 
L 152.131034 44.443636 
L 157.903448 50.307993 
L 163.675862 57.338119 
L 169.448276 47.315168 
L 175.22069 49.206486 
L 180.993103 48.040686 
L 186.765517 55.387191 
L 192.537931 47.778211 
L 198.310345 49.525026 
L 204.082759 44.699593 
L 209.855172 49.971499 
L 215.627586 56.685855 
L 221.4 64.151029 
L 227.172414 70.976699 
L 232.944828 78.766045 
L 238.717241 72.613906 
L 244.489655 92.022014 
L 250.262069 94.225299 
L 256.034483 105.296291 
L 261.806897 110.544428 
L 267.57931 116.227249 
L 273.351724 123.072001 
L 279.124138 121.651011 
L 284.896552 134.295755 
L 290.668966 140.959471 
L 296.441379 146.039251 
L 302.213793 144.166841 
L 307.986207 148.601232 
L 313.758621 152.375471 
L 319.531034 153.391661 
L 325.303448 165.010647 
L 331.075862 162.750279 
L 336.848276 165.329099 
L 342.62069 164.064314 
L 348.393103 168.190419 
L 354.165517 169.683937 
L 359.937931 170.485933 
L 365.710345 171.769506 
L 371.482759 168.581393 
L 377.255172 176.462309 
L 383.027586 169.36809 
L 388.8 166.754153 
L 394.572414 178.07199 
L 400.344828 181.762771 
L 406.117241 184.727125 
L 411.889655 181.584759 
L 417.662069 189.932115 
L 423.434483 192.226898 
L 429.206897 184.440715 
L 433 181.359995 
" style="fill:none;stroke:#8b0000;stroke-linecap:square;stroke-width:1.5;"/>
   </g>
   <g id="patch_3">
    <path d="M 54 252 
L 54 34.56 
" style="fill:none;stroke:#000000;stroke-linecap:square;stroke-linejoin:miter;stroke-width:0.8;"/>
   </g>
   <g id="patch_4">
    <path d="M 388.8 252 
L 388.8 34.56 
" style="fill:none;stroke:#000000;stroke-linecap:square;stroke-linejoin:miter;stroke-width:0.8;"/>
   </g>
   <g id="patch_5">
    <path d="M 54 252 
L 388.8 252 
" style="fill:none;stroke:#000000;stroke-linecap:square;stroke-linejoin:miter;stroke-width:0.8;"/>
   </g>
   <g id="patch_6">
    <path d="M 54 34.56 
L 388.8 34.56 
" style="fill:none;stroke:#000000;stroke-linecap:square;stroke-linejoin:miter;stroke-width:0.8;"/>
   </g>
   <g id="text_14">
    <!-- średni czas na wykonanie ruchu -->
    <g transform="translate(125.415 15.122625)scale(0.12 -0.12)">
     <defs>
      <path d="M 269 3500 
L 844 3500 
L 1563 769 
L 2278 3500 
L 2956 3500 
L 3675 769 
L 4391 3500 
L 4966 3500 
L 4050 0 
L 3372 0 
L 2619 2869 
L 1863 0 
L 1184 0 
L 269 3500 
z
" id="DejaVuSans-77" transform="scale(0.015625)"/>
      <path d="M 2059 -325 
Q 1816 -950 1584 -1140 
Q 1353 -1331 966 -1331 
L 506 -1331 
L 506 -850 
L 844 -850 
Q 1081 -850 1212 -737 
Q 1344 -625 1503 -206 
L 1606 56 
L 191 3500 
L 800 3500 
L 1894 763 
L 2988 3500 
L 3597 3500 
L 2059 -325 
z
" id="DejaVuSans-79" transform="scale(0.015625)"/>
      <path d="M 581 4863 
L 1159 4863 
L 1159 1991 
L 2875 3500 
L 3609 3500 
L 1753 1863 
L 3688 0 
L 2938 0 
L 1159 1709 
L 1159 0 
L 581 0 
L 581 4863 
z
" id="DejaVuSans-6b" transform="scale(0.015625)"/>
      <path d="M 1959 3097 
Q 1497 3097 1228 2736 
Q 959 2375 959 1747 
Q 959 1119 1226 758 
Q 1494 397 1959 397 
Q 2419 397 2687 759 
Q 2956 1122 2956 1747 
Q 2956 2369 2687 2733 
Q 2419 3097 1959 3097 
z
M 1959 3584 
Q 2709 3584 3137 3096 
Q 3566 2609 3566 1747 
Q 3566 888 3137 398 
Q 2709 -91 1959 -91 
Q 1206 -91 779 398 
Q 353 888 353 1747 
Q 353 2609 779 3096 
Q 1206 3584 1959 3584 
z
" id="DejaVuSans-6f" transform="scale(0.015625)"/>
     </defs>
     <use xlink:href="#DejaVuSans-15b"/>
     <use x="52.099609" xlink:href="#DejaVuSans-72"/>
     <use x="90.962891" xlink:href="#DejaVuSans-65"/>
     <use x="152.486328" xlink:href="#DejaVuSans-64"/>
     <use x="215.962891" xlink:href="#DejaVuSans-6e"/>
     <use x="279.341797" xlink:href="#DejaVuSans-69"/>
     <use x="307.125" xlink:href="#DejaVuSans-20"/>
     <use x="338.912109" xlink:href="#DejaVuSans-63"/>
     <use x="393.892578" xlink:href="#DejaVuSans-7a"/>
     <use x="446.382812" xlink:href="#DejaVuSans-61"/>
     <use x="507.662109" xlink:href="#DejaVuSans-73"/>
     <use x="559.761719" xlink:href="#DejaVuSans-20"/>
     <use x="591.548828" xlink:href="#DejaVuSans-6e"/>
     <use x="654.927734" xlink:href="#DejaVuSans-61"/>
     <use x="716.207031" xlink:href="#DejaVuSans-20"/>
     <use x="747.994141" xlink:href="#DejaVuSans-77"/>
     <use x="829.78125" xlink:href="#DejaVuSans-79"/>
     <use x="888.960938" xlink:href="#DejaVuSans-6b"/>
     <use x="943.246094" xlink:href="#DejaVuSans-6f"/>
     <use x="1004.427734" xlink:href="#DejaVuSans-6e"/>
     <use x="1067.806641" xlink:href="#DejaVuSans-61"/>
     <use x="1129.085938" xlink:href="#DejaVuSans-6e"/>
     <use x="1192.464844" xlink:href="#DejaVuSans-69"/>
     <use x="1220.248047" xlink:href="#DejaVuSans-65"/>
     <use x="1281.771484" xlink:href="#DejaVuSans-20"/>
     <use x="1313.558594" xlink:href="#DejaVuSans-72"/>
     <use x="1354.671875" xlink:href="#DejaVuSans-75"/>
     <use x="1418.050781" xlink:href="#DejaVuSans-63"/>
     <use x="1473.03125" xlink:href="#DejaVuSans-68"/>
     <use x="1536.410156" xlink:href="#DejaVuSans-75"/>
    </g>
    <!-- w zależności od numeru ruchu, format 600+0 -->
    <g transform="translate(83.865938 28.56)scale(0.12 -0.12)">
     <defs>
      <path d="M 603 4863 
L 1178 4863 
L 1178 0 
L 603 0 
L 603 4863 
z
" id="DejaVuSans-6c" transform="scale(0.015625)"/>
      <path d="M 1378 4863 
L 1953 4863 
L 1953 4134 
L 1378 4134 
L 1378 4863 
z
M 1672 3584 
L 1672 3584 
z
M 353 3500 
L 3084 3500 
L 3084 2975 
L 922 459 
L 3084 459 
L 3084 0 
L 275 0 
L 275 525 
L 2438 3041 
L 353 3041 
L 353 3500 
z
" id="DejaVuSans-17c" transform="scale(0.015625)"/>
      <path d="M 750 794 
L 1409 794 
L 1409 256 
L 897 -744 
L 494 -744 
L 750 256 
L 750 794 
z
" id="DejaVuSans-2c" transform="scale(0.015625)"/>
      <path d="M 2375 4863 
L 2375 4384 
L 1825 4384 
Q 1516 4384 1395 4259 
Q 1275 4134 1275 3809 
L 1275 3500 
L 2222 3500 
L 2222 3053 
L 1275 3053 
L 1275 0 
L 697 0 
L 697 3053 
L 147 3053 
L 147 3500 
L 697 3500 
L 697 3744 
Q 697 4328 969 4595 
Q 1241 4863 1831 4863 
L 2375 4863 
z
" id="DejaVuSans-66" transform="scale(0.015625)"/>
      <path d="M 1172 4494 
L 1172 3500 
L 2356 3500 
L 2356 3053 
L 1172 3053 
L 1172 1153 
Q 1172 725 1289 603 
Q 1406 481 1766 481 
L 2356 481 
L 2356 0 
L 1766 0 
Q 1100 0 847 248 
Q 594 497 594 1153 
L 594 3053 
L 172 3053 
L 172 3500 
L 594 3500 
L 594 4494 
L 1172 4494 
z
" id="DejaVuSans-74" transform="scale(0.015625)"/>
      <path d="M 2113 2584 
Q 1688 2584 1439 2293 
Q 1191 2003 1191 1497 
Q 1191 994 1439 701 
Q 1688 409 2113 409 
Q 2538 409 2786 701 
Q 3034 994 3034 1497 
Q 3034 2003 2786 2293 
Q 2538 2584 2113 2584 
z
M 3366 4563 
L 3366 3988 
Q 3128 4100 2886 4159 
Q 2644 4219 2406 4219 
Q 1781 4219 1451 3797 
Q 1122 3375 1075 2522 
Q 1259 2794 1537 2939 
Q 1816 3084 2150 3084 
Q 2853 3084 3261 2657 
Q 3669 2231 3669 1497 
Q 3669 778 3244 343 
Q 2819 -91 2113 -91 
Q 1303 -91 875 529 
Q 447 1150 447 2328 
Q 447 3434 972 4092 
Q 1497 4750 2381 4750 
Q 2619 4750 2861 4703 
Q 3103 4656 3366 4563 
z
" id="DejaVuSans-36" transform="scale(0.015625)"/>
      <path d="M 2944 4013 
L 2944 2272 
L 4684 2272 
L 4684 1741 
L 2944 1741 
L 2944 0 
L 2419 0 
L 2419 1741 
L 678 1741 
L 678 2272 
L 2419 2272 
L 2419 4013 
L 2944 4013 
z
" id="DejaVuSans-2b" transform="scale(0.015625)"/>
     </defs>
     <use xlink:href="#DejaVuSans-77"/>
     <use x="81.787109" xlink:href="#DejaVuSans-20"/>
     <use x="113.574219" xlink:href="#DejaVuSans-7a"/>
     <use x="166.064453" xlink:href="#DejaVuSans-61"/>
     <use x="227.34375" xlink:href="#DejaVuSans-6c"/>
     <use x="255.126953" xlink:href="#DejaVuSans-65"/>
     <use x="316.650391" xlink:href="#DejaVuSans-17c"/>
     <use x="369.140625" xlink:href="#DejaVuSans-6e"/>
     <use x="432.519531" xlink:href="#DejaVuSans-6f"/>
     <use x="493.701172" xlink:href="#DejaVuSans-15b"/>
     <use x="545.800781" xlink:href="#DejaVuSans-63"/>
     <use x="600.78125" xlink:href="#DejaVuSans-69"/>
     <use x="628.564453" xlink:href="#DejaVuSans-20"/>
     <use x="660.351562" xlink:href="#DejaVuSans-6f"/>
     <use x="721.533203" xlink:href="#DejaVuSans-64"/>
     <use x="785.009766" xlink:href="#DejaVuSans-20"/>
     <use x="816.796875" xlink:href="#DejaVuSans-6e"/>
     <use x="880.175781" xlink:href="#DejaVuSans-75"/>
     <use x="943.554688" xlink:href="#DejaVuSans-6d"/>
     <use x="1040.966797" xlink:href="#DejaVuSans-65"/>
     <use x="1102.490234" xlink:href="#DejaVuSans-72"/>
     <use x="1143.603516" xlink:href="#DejaVuSans-75"/>
     <use x="1206.982422" xlink:href="#DejaVuSans-20"/>
     <use x="1238.769531" xlink:href="#DejaVuSans-72"/>
     <use x="1279.882812" xlink:href="#DejaVuSans-75"/>
     <use x="1343.261719" xlink:href="#DejaVuSans-63"/>
     <use x="1398.242188" xlink:href="#DejaVuSans-68"/>
     <use x="1461.621094" xlink:href="#DejaVuSans-75"/>
     <use x="1525" xlink:href="#DejaVuSans-2c"/>
     <use x="1556.787109" xlink:href="#DejaVuSans-20"/>
     <use x="1588.574219" xlink:href="#DejaVuSans-66"/>
     <use x="1623.779297" xlink:href="#DejaVuSans-6f"/>
     <use x="1684.960938" xlink:href="#DejaVuSans-72"/>
     <use x="1724.324219" xlink:href="#DejaVuSans-6d"/>
     <use x="1821.736328" xlink:href="#DejaVuSans-61"/>
     <use x="1883.015625" xlink:href="#DejaVuSans-74"/>
     <use x="1922.224609" xlink:href="#DejaVuSans-20"/>
     <use x="1954.011719" xlink:href="#DejaVuSans-36"/>
     <use x="2017.634766" xlink:href="#DejaVuSans-30"/>
     <use x="2081.257812" xlink:href="#DejaVuSans-30"/>
     <use x="2144.880859" xlink:href="#DejaVuSans-2b"/>
     <use x="2228.669922" xlink:href="#DejaVuSans-30"/>
    </g>
   </g>
   <g id="legend_1">
    <g id="patch_7">
     <path d="M 61 247 
L 206.915625 247 
Q 208.915625 247 208.915625 245 
L 208.915625 128.575 
Q 208.915625 126.575 206.915625 126.575 
L 61 126.575 
Q 59 126.575 59 128.575 
L 59 245 
Q 59 247 61 247 
z
" style="fill:#ffffff;opacity:0.8;stroke:#cccccc;stroke-linejoin:miter;"/>
    </g>
    <g id="line2d_20">
     <path d="M 63 134.673438 
L 83 134.673438 
" style="fill:none;stroke:#6495ed;stroke-linecap:square;stroke-width:1.5;"/>
    </g>
    <g id="line2d_21"/>
    <g id="text_15">
     <!-- ranking: (1500, 1722&gt; -->
     <g transform="translate(91 138.173438)scale(0.1 -0.1)">
      <defs>
       <path d="M 2906 1791 
Q 2906 2416 2648 2759 
Q 2391 3103 1925 3103 
Q 1463 3103 1205 2759 
Q 947 2416 947 1791 
Q 947 1169 1205 825 
Q 1463 481 1925 481 
Q 2391 481 2648 825 
Q 2906 1169 2906 1791 
z
M 3481 434 
Q 3481 -459 3084 -895 
Q 2688 -1331 1869 -1331 
Q 1566 -1331 1297 -1286 
Q 1028 -1241 775 -1147 
L 775 -588 
Q 1028 -725 1275 -790 
Q 1522 -856 1778 -856 
Q 2344 -856 2625 -561 
Q 2906 -266 2906 331 
L 2906 616 
Q 2728 306 2450 153 
Q 2172 0 1784 0 
Q 1141 0 747 490 
Q 353 981 353 1791 
Q 353 2603 747 3093 
Q 1141 3584 1784 3584 
Q 2172 3584 2450 3431 
Q 2728 3278 2906 2969 
L 2906 3500 
L 3481 3500 
L 3481 434 
z
" id="DejaVuSans-67" transform="scale(0.015625)"/>
       <path d="M 750 794 
L 1409 794 
L 1409 0 
L 750 0 
L 750 794 
z
M 750 3309 
L 1409 3309 
L 1409 2516 
L 750 2516 
L 750 3309 
z
" id="DejaVuSans-3a" transform="scale(0.015625)"/>
       <path d="M 1984 4856 
Q 1566 4138 1362 3434 
Q 1159 2731 1159 2009 
Q 1159 1288 1364 580 
Q 1569 -128 1984 -844 
L 1484 -844 
Q 1016 -109 783 600 
Q 550 1309 550 2009 
Q 550 2706 781 3412 
Q 1013 4119 1484 4856 
L 1984 4856 
z
" id="DejaVuSans-28" transform="scale(0.015625)"/>
       <path d="M 525 4666 
L 3525 4666 
L 3525 4397 
L 1831 0 
L 1172 0 
L 2766 4134 
L 525 4134 
L 525 4666 
z
" id="DejaVuSans-37" transform="scale(0.015625)"/>
       <path d="M 678 3150 
L 678 3719 
L 4684 2266 
L 4684 1747 
L 678 294 
L 678 863 
L 3897 2003 
L 678 3150 
z
" id="DejaVuSans-3e" transform="scale(0.015625)"/>
      </defs>
      <use xlink:href="#DejaVuSans-72"/>
      <use x="41.113281" xlink:href="#DejaVuSans-61"/>
      <use x="102.392578" xlink:href="#DejaVuSans-6e"/>
      <use x="165.771484" xlink:href="#DejaVuSans-6b"/>
      <use x="223.681641" xlink:href="#DejaVuSans-69"/>
      <use x="251.464844" xlink:href="#DejaVuSans-6e"/>
      <use x="314.84375" xlink:href="#DejaVuSans-67"/>
      <use x="378.320312" xlink:href="#DejaVuSans-3a"/>
      <use x="412.011719" xlink:href="#DejaVuSans-20"/>
      <use x="443.798828" xlink:href="#DejaVuSans-28"/>
      <use x="482.8125" xlink:href="#DejaVuSans-31"/>
      <use x="546.435547" xlink:href="#DejaVuSans-35"/>
      <use x="610.058594" xlink:href="#DejaVuSans-30"/>
      <use x="673.681641" xlink:href="#DejaVuSans-30"/>
      <use x="737.304688" xlink:href="#DejaVuSans-2c"/>
      <use x="769.091797" xlink:href="#DejaVuSans-20"/>
      <use x="800.878906" xlink:href="#DejaVuSans-31"/>
      <use x="864.501953" xlink:href="#DejaVuSans-37"/>
      <use x="928.125" xlink:href="#DejaVuSans-32"/>
      <use x="991.748047" xlink:href="#DejaVuSans-32"/>
      <use x="1055.371094" xlink:href="#DejaVuSans-3e"/>
     </g>
    </g>
    <g id="line2d_22">
     <path d="M 63 149.351563 
L 83 149.351563 
" style="fill:none;stroke:#ff0000;stroke-linecap:square;stroke-width:1.5;"/>
    </g>
    <g id="line2d_23"/>
    <g id="text_16">
     <!-- duży błąd -->
     <g transform="translate(91 152.851563)scale(0.1 -0.1)">
      <defs>
       <path d="M 3116 1747 
Q 3116 2381 2855 2742 
Q 2594 3103 2138 3103 
Q 1681 3103 1420 2742 
Q 1159 2381 1159 1747 
Q 1159 1113 1420 752 
Q 1681 391 2138 391 
Q 2594 391 2855 752 
Q 3116 1113 3116 1747 
z
M 1159 2969 
Q 1341 3281 1617 3432 
Q 1894 3584 2278 3584 
Q 2916 3584 3314 3078 
Q 3713 2572 3713 1747 
Q 3713 922 3314 415 
Q 2916 -91 2278 -91 
Q 1894 -91 1617 61 
Q 1341 213 1159 525 
L 1159 0 
L 581 0 
L 581 4863 
L 1159 4863 
L 1159 2969 
z
" id="DejaVuSans-62" transform="scale(0.015625)"/>
       <path d="M 622 4863 
L 1197 4863 
L 1197 2981 
L 1588 3263 
L 1825 2931 
L 1197 2491 
L 1197 0 
L 622 0 
L 622 2081 
L 238 1806 
L 6 2138 
L 622 2578 
L 622 4863 
z
" id="DejaVuSans-142" transform="scale(0.015625)"/>
       <path d="M 2194 1759 
Q 1497 1759 1228 1600 
Q 959 1441 959 1056 
Q 959 750 1161 570 
Q 1363 391 1709 391 
Q 2188 391 2477 730 
Q 2766 1069 2766 1631 
L 2766 1759 
L 2194 1759 
z
M 3341 1997 
L 3341 0 
L 2766 0 
L 2766 531 
Q 2569 213 2275 61 
Q 1981 -91 1556 -91 
Q 1019 -91 701 211 
Q 384 513 384 1019 
Q 384 1609 779 1909 
Q 1175 2209 1959 2209 
L 2766 2209 
L 2766 2266 
Q 2766 2663 2505 2880 
Q 2244 3097 1772 3097 
Q 1472 3097 1187 3025 
Q 903 2953 641 2809 
L 641 3341 
Q 956 3463 1253 3523 
Q 1550 3584 1831 3584 
Q 2591 3584 2966 3190 
Q 3341 2797 3341 1997 
z
M 2772 0 
L 3144 0 
Q 3003 -191 2936 -328 
Q 2869 -466 2869 -563 
Q 2869 -706 2955 -778 
Q 3041 -850 3209 -850 
Q 3309 -850 3406 -826 
Q 3503 -803 3600 -756 
L 3600 -1172 
Q 3481 -1203 3375 -1218 
Q 3269 -1234 3175 -1234 
Q 2794 -1234 2614 -1098 
Q 2434 -963 2434 -672 
Q 2434 -522 2517 -358 
Q 2600 -194 2772 0 
z
" id="DejaVuSans-105" transform="scale(0.015625)"/>
      </defs>
      <use xlink:href="#DejaVuSans-64"/>
      <use x="63.476562" xlink:href="#DejaVuSans-75"/>
      <use x="126.855469" xlink:href="#DejaVuSans-17c"/>
      <use x="179.345703" xlink:href="#DejaVuSans-79"/>
      <use x="238.525391" xlink:href="#DejaVuSans-20"/>
      <use x="270.3125" xlink:href="#DejaVuSans-62"/>
      <use x="333.789062" xlink:href="#DejaVuSans-142"/>
      <use x="362.207031" xlink:href="#DejaVuSans-105"/>
      <use x="423.486328" xlink:href="#DejaVuSans-64"/>
     </g>
    </g>
    <g id="line2d_24">
     <path d="M 63 164.029688 
L 83 164.029688 
" style="fill:none;stroke:#0000ff;stroke-linecap:square;stroke-width:1.5;"/>
    </g>
    <g id="line2d_25"/>
    <g id="text_17">
     <!-- ranking: (1500, 1722&gt; -->
     <g transform="translate(91 167.529688)scale(0.1 -0.1)">
      <use xlink:href="#DejaVuSans-72"/>
      <use x="41.113281" xlink:href="#DejaVuSans-61"/>
      <use x="102.392578" xlink:href="#DejaVuSans-6e"/>
      <use x="165.771484" xlink:href="#DejaVuSans-6b"/>
      <use x="223.681641" xlink:href="#DejaVuSans-69"/>
      <use x="251.464844" xlink:href="#DejaVuSans-6e"/>
      <use x="314.84375" xlink:href="#DejaVuSans-67"/>
      <use x="378.320312" xlink:href="#DejaVuSans-3a"/>
      <use x="412.011719" xlink:href="#DejaVuSans-20"/>
      <use x="443.798828" xlink:href="#DejaVuSans-28"/>
      <use x="482.8125" xlink:href="#DejaVuSans-31"/>
      <use x="546.435547" xlink:href="#DejaVuSans-35"/>
      <use x="610.058594" xlink:href="#DejaVuSans-30"/>
      <use x="673.681641" xlink:href="#DejaVuSans-30"/>
      <use x="737.304688" xlink:href="#DejaVuSans-2c"/>
      <use x="769.091797" xlink:href="#DejaVuSans-20"/>
      <use x="800.878906" xlink:href="#DejaVuSans-31"/>
      <use x="864.501953" xlink:href="#DejaVuSans-37"/>
      <use x="928.125" xlink:href="#DejaVuSans-32"/>
      <use x="991.748047" xlink:href="#DejaVuSans-32"/>
      <use x="1055.371094" xlink:href="#DejaVuSans-3e"/>
     </g>
    </g>
    <g id="line2d_26">
     <path d="M 63 178.707813 
L 83 178.707813 
" style="fill:none;stroke:#ffa500;stroke-linecap:square;stroke-width:1.5;"/>
    </g>
    <g id="line2d_27"/>
    <g id="text_18">
     <!-- duży błąd -->
     <g transform="translate(91 182.207813)scale(0.1 -0.1)">
      <use xlink:href="#DejaVuSans-64"/>
      <use x="63.476562" xlink:href="#DejaVuSans-75"/>
      <use x="126.855469" xlink:href="#DejaVuSans-17c"/>
      <use x="179.345703" xlink:href="#DejaVuSans-79"/>
      <use x="238.525391" xlink:href="#DejaVuSans-20"/>
      <use x="270.3125" xlink:href="#DejaVuSans-62"/>
      <use x="333.789062" xlink:href="#DejaVuSans-142"/>
      <use x="362.207031" xlink:href="#DejaVuSans-105"/>
      <use x="423.486328" xlink:href="#DejaVuSans-64"/>
     </g>
    </g>
    <g id="line2d_28">
     <path d="M 63 193.385938 
L 83 193.385938 
" style="fill:none;stroke:#9400d3;stroke-linecap:square;stroke-width:1.5;"/>
    </g>
    <g id="line2d_29"/>
    <g id="text_19">
     <!-- ranking: (1500, 1722&gt; -->
     <g transform="translate(91 196.885938)scale(0.1 -0.1)">
      <use xlink:href="#DejaVuSans-72"/>
      <use x="41.113281" xlink:href="#DejaVuSans-61"/>
      <use x="102.392578" xlink:href="#DejaVuSans-6e"/>
      <use x="165.771484" xlink:href="#DejaVuSans-6b"/>
      <use x="223.681641" xlink:href="#DejaVuSans-69"/>
      <use x="251.464844" xlink:href="#DejaVuSans-6e"/>
      <use x="314.84375" xlink:href="#DejaVuSans-67"/>
      <use x="378.320312" xlink:href="#DejaVuSans-3a"/>
      <use x="412.011719" xlink:href="#DejaVuSans-20"/>
      <use x="443.798828" xlink:href="#DejaVuSans-28"/>
      <use x="482.8125" xlink:href="#DejaVuSans-31"/>
      <use x="546.435547" xlink:href="#DejaVuSans-35"/>
      <use x="610.058594" xlink:href="#DejaVuSans-30"/>
      <use x="673.681641" xlink:href="#DejaVuSans-30"/>
      <use x="737.304688" xlink:href="#DejaVuSans-2c"/>
      <use x="769.091797" xlink:href="#DejaVuSans-20"/>
      <use x="800.878906" xlink:href="#DejaVuSans-31"/>
      <use x="864.501953" xlink:href="#DejaVuSans-37"/>
      <use x="928.125" xlink:href="#DejaVuSans-32"/>
      <use x="991.748047" xlink:href="#DejaVuSans-32"/>
      <use x="1055.371094" xlink:href="#DejaVuSans-3e"/>
     </g>
    </g>
    <g id="line2d_30">
     <path d="M 63 208.064063 
L 83 208.064063 
" style="fill:none;stroke:#f08080;stroke-linecap:square;stroke-width:1.5;"/>
    </g>
    <g id="line2d_31"/>
    <g id="text_20">
     <!-- duży błąd -->
     <g transform="translate(91 211.564063)scale(0.1 -0.1)">
      <use xlink:href="#DejaVuSans-64"/>
      <use x="63.476562" xlink:href="#DejaVuSans-75"/>
      <use x="126.855469" xlink:href="#DejaVuSans-17c"/>
      <use x="179.345703" xlink:href="#DejaVuSans-79"/>
      <use x="238.525391" xlink:href="#DejaVuSans-20"/>
      <use x="270.3125" xlink:href="#DejaVuSans-62"/>
      <use x="333.789062" xlink:href="#DejaVuSans-142"/>
      <use x="362.207031" xlink:href="#DejaVuSans-105"/>
      <use x="423.486328" xlink:href="#DejaVuSans-64"/>
     </g>
    </g>
    <g id="line2d_32">
     <path d="M 63 222.742188 
L 83 222.742188 
" style="fill:none;stroke:#191970;stroke-linecap:square;stroke-width:1.5;"/>
    </g>
    <g id="line2d_33"/>
    <g id="text_21">
     <!-- ranking: (1500, 1722&gt; -->
     <g transform="translate(91 226.242188)scale(0.1 -0.1)">
      <use xlink:href="#DejaVuSans-72"/>
      <use x="41.113281" xlink:href="#DejaVuSans-61"/>
      <use x="102.392578" xlink:href="#DejaVuSans-6e"/>
      <use x="165.771484" xlink:href="#DejaVuSans-6b"/>
      <use x="223.681641" xlink:href="#DejaVuSans-69"/>
      <use x="251.464844" xlink:href="#DejaVuSans-6e"/>
      <use x="314.84375" xlink:href="#DejaVuSans-67"/>
      <use x="378.320312" xlink:href="#DejaVuSans-3a"/>
      <use x="412.011719" xlink:href="#DejaVuSans-20"/>
      <use x="443.798828" xlink:href="#DejaVuSans-28"/>
      <use x="482.8125" xlink:href="#DejaVuSans-31"/>
      <use x="546.435547" xlink:href="#DejaVuSans-35"/>
      <use x="610.058594" xlink:href="#DejaVuSans-30"/>
      <use x="673.681641" xlink:href="#DejaVuSans-30"/>
      <use x="737.304688" xlink:href="#DejaVuSans-2c"/>
      <use x="769.091797" xlink:href="#DejaVuSans-20"/>
      <use x="800.878906" xlink:href="#DejaVuSans-31"/>
      <use x="864.501953" xlink:href="#DejaVuSans-37"/>
      <use x="928.125" xlink:href="#DejaVuSans-32"/>
      <use x="991.748047" xlink:href="#DejaVuSans-32"/>
      <use x="1055.371094" xlink:href="#DejaVuSans-3e"/>
     </g>
    </g>
    <g id="line2d_34">
     <path d="M 63 237.420313 
L 83 237.420313 
" style="fill:none;stroke:#8b0000;stroke-linecap:square;stroke-width:1.5;"/>
    </g>
    <g id="line2d_35"/>
    <g id="text_22">
     <!-- duży błąd -->
     <g transform="translate(91 240.920313)scale(0.1 -0.1)">
      <use xlink:href="#DejaVuSans-64"/>
      <use x="63.476562" xlink:href="#DejaVuSans-75"/>
      <use x="126.855469" xlink:href="#DejaVuSans-17c"/>
      <use x="179.345703" xlink:href="#DejaVuSans-79"/>
      <use x="238.525391" xlink:href="#DejaVuSans-20"/>
      <use x="270.3125" xlink:href="#DejaVuSans-62"/>
      <use x="333.789062" xlink:href="#DejaVuSans-142"/>
      <use x="362.207031" xlink:href="#DejaVuSans-105"/>
      <use x="423.486328" xlink:href="#DejaVuSans-64"/>
     </g>
    </g>
   </g>
  </g>
 </g>
 <defs>
  <clipPath id="p1fd6c636af">
   <rect height="217.44" width="334.8" x="54" y="34.56"/>
  </clipPath>
 </defs>
</svg>
